<?xml version="1.0" encoding="iso-8859-1"?>
<!-- Generator: Adobe Illustrator 15.0.0, SVG Export Plug-In . SVG Version: 6.00 Build 0)  -->
<!DOCTYPE svg PUBLIC "-//W3C//DTD SVG 1.1//EN" "http://www.w3.org/Graphics/SVG/1.1/DTD/svg11.dtd">
<svg version="1.1" id="Icons" xmlns="http://www.w3.org/2000/svg" xmlns:xlink="http://www.w3.org/1999/xlink" x="0px" y="0px"
	 width="100px" height="100px" viewBox="0 0 100 100" style="enable-background:new 0 0 100 100;" xml:space="preserve">
<path id="Drupal" d="M69.664,21.737c-4.61-2.865-8.967-3.989-13.314-6.854c-2.695-1.82-6.435-6.155-9.572-9.882
	c-0.604,5.983-2.433,8.416-4.524,10.151c-4.429,3.462-7.216,4.501-11.048,6.585C27.987,23.386,10.5,33.786,10.5,56.16
	C10.5,78.529,29.382,95,50.345,95C71.316,95,89.5,79.828,89.5,56.851C89.5,33.873,72.447,23.47,69.664,21.737z M70.018,86.254
	c-0.438,0.43-4.44,3.206-9.135,3.643c-4.699,0.43-11.053,0.691-14.878-2.778c-0.607-0.609-0.439-1.469,0-1.815
	c0.434-0.353,0.781-0.614,1.306-0.614c0.525,0,0.43,0,0.697,0.174c1.739,1.39,4.347,2.512,9.912,2.512
	c5.571,0,9.49-1.552,11.227-2.86c0.782-0.605,1.13-0.084,1.22,0.264C70.451,85.125,70.626,85.649,70.018,86.254z M54.939,78.955
	c0.957-0.87,2.528-2.258,4.008-2.862c1.479-0.609,2.254-0.522,3.651-0.522c1.39,0,2.875,0.087,3.915,0.786
	c1.041,0.694,1.654,2.25,1.995,3.111c0.352,0.873,0,1.39-0.689,1.741c-0.606,0.343-0.696,0.171-1.306-0.953
	c-0.604-1.126-1.128-2.258-4.175-2.258c-3.043,0-4.002,1.044-5.481,2.258c-1.478,1.211-2.002,1.646-2.526,0.953
	C53.81,80.517,53.984,79.82,54.939,78.955z M86.342,62.427c0,2.686-0.867,7.54-2.961,10.574c-2.081,3.039-3.385,4.168-5.83,3.992
	c-3.135-0.264-9.395-9.973-13.396-10.15c-5.04-0.171-16.007,10.5-24.623,10.5c-5.222,0-6.782-0.78-8.521-1.912
	c-2.614-1.821-3.92-4.594-3.834-8.411c0.093-6.767,6.436-13.089,14.445-13.173c10.173-0.09,17.229,10.049,22.356,9.967
	c4.353-0.082,12.709-8.585,16.798-8.585C85.124,55.229,86.342,59.731,86.342,62.427z"/>
</svg>
