<?xml version="1.0" encoding="UTF-8" standalone="no"?>
<!-- Generator: Adobe Illustrator 15.0.0, SVG Export Plug-In . SVG Version: 6.00 Build 0)  -->

<svg
   xmlns:dc="http://purl.org/dc/elements/1.1/"
   xmlns:cc="http://creativecommons.org/ns#"
   xmlns:rdf="http://www.w3.org/1999/02/22-rdf-syntax-ns#"
   xmlns:svg="http://www.w3.org/2000/svg"
   xmlns="http://www.w3.org/2000/svg"
   xmlns:sodipodi="http://sodipodi.sourceforge.net/DTD/sodipodi-0.dtd"
   xmlns:inkscape="http://www.inkscape.org/namespaces/inkscape"
   version="1.1"
   id="Icons"
   x="0px"
   y="0px"
   width="100px"
   height="100px"
   viewBox="0 0 100 100"
   style="enable-background:new 0 0 100 100;"
   xml:space="preserve"
   inkscape:version="0.48.2 r9819"
   sodipodi:docname="hulu.svg"><metadata
   id="metadata8"><rdf:RDF><cc:Work
       rdf:about=""><dc:format>image/svg+xml</dc:format><dc:type
         rdf:resource="http://purl.org/dc/dcmitype/StillImage" /><dc:title></dc:title></cc:Work></rdf:RDF></metadata><defs
   id="defs6" /><sodipodi:namedview
   pagecolor="#ffffff"
   bordercolor="#666666"
   borderopacity="1"
   objecttolerance="10"
   gridtolerance="10"
   guidetolerance="10"
   inkscape:pageopacity="0"
   inkscape:pageshadow="2"
   inkscape:window-width="1280"
   inkscape:window-height="1002"
   id="namedview4"
   showgrid="false"
   inkscape:zoom="3.337544"
   inkscape:cx="110.03316"
   inkscape:cy="52.264751"
   inkscape:window-x="-8"
   inkscape:window-y="-8"
   inkscape:window-maximized="1"
   inkscape:current-layer="Icons" />
<path
   id="LinkedIn__x28_alt_x29_"
   d="m 87.877,5.608 -76.703,0 c -3.673,0 -6.65,2.886 -6.65,6.448 l 0,77.101 c 0,3.562 2.978,6.451 6.65,6.451 l 76.703,0 c 3.673,0 6.646,-2.89 6.646,-6.451 l 0,-77.101 c 0,-3.561 -2.973,-6.448 -6.646,-6.448 z"
   inkscape:connector-curvature="0"
   sodipodi:nodetypes="sssssssss" />
<path
   inkscape:connector-curvature="0"
   d="M 85.055717,76.887832 H 13.819383 V 22.439338 h 71.236334 v 54.448494 l 0,0 z M 22.248779,71.851011 H 76.62561 l -17.893143,-18.56412 -3.388,3.455821 c -1.466756,1.485707 -3.566803,2.336127 -5.773705,2.336127 -0.01211,0 -0.02493,-0.0022 -0.03704,-0.0022 -2.21545,-0.0094 -4.321908,-0.877852 -5.780828,-2.385217 l -3.444277,-3.533788 -18.059835,18.693343 0,0 z M 18.789542,31.082861 V 68.23348 L 36.815896,49.576233 18.789542,31.082861 l 0,0 z M 62.234445,49.713397 80.085558,68.231314 V 31.50013 l -17.851113,18.213267 0,0 z M 22.260177,27.477603 47.294761,53.15839 c 0.542109,0.558764 1.364888,0.879296 2.261041,0.881462 0.0057,0 0.01,0 0.01496,0 0.883331,0 1.724632,-0.316201 2.251781,-0.853307 L 77.021684,27.477603 H 22.260177 l 0,0 z"
   id="path3"
   style="fill:#ffffff" /></svg>