<?xml version="1.0" encoding="UTF-8" standalone="no"?>
<!-- Generator: Adobe Illustrator 15.0.0, SVG Export Plug-In . SVG Version: 6.00 Build 0)  -->

<svg
   xmlns:dc="http://purl.org/dc/elements/1.1/"
   xmlns:cc="http://creativecommons.org/ns#"
   xmlns:rdf="http://www.w3.org/1999/02/22-rdf-syntax-ns#"
   xmlns:svg="http://www.w3.org/2000/svg"
   xmlns="http://www.w3.org/2000/svg"
   xmlns:sodipodi="http://sodipodi.sourceforge.net/DTD/sodipodi-0.dtd"
   xmlns:inkscape="http://www.inkscape.org/namespaces/inkscape"
   version="1.1"
   id="Icons"
   x="0px"
   y="0px"
   width="100px"
   height="100px"
   viewBox="0 0 100 100"
   style="enable-background:new 0 0 100 100;"
   xml:space="preserve"
   inkscape:version="0.48.2 r9819"
   sodipodi:docname="email.svg"><metadata
   id="metadata8"><rdf:RDF><cc:Work
       rdf:about=""><dc:format>image/svg+xml</dc:format><dc:type
         rdf:resource="http://purl.org/dc/dcmitype/StillImage" /><dc:title></dc:title></cc:Work></rdf:RDF></metadata><defs
   id="defs6" /><sodipodi:namedview
   pagecolor="#ffffff"
   bordercolor="#666666"
   borderopacity="1"
   objecttolerance="10"
   gridtolerance="10"
   guidetolerance="10"
   inkscape:pageopacity="0"
   inkscape:pageshadow="2"
   inkscape:window-width="1280"
   inkscape:window-height="1002"
   id="namedview4"
   showgrid="false"
   inkscape:zoom="3.337544"
   inkscape:cx="110.03316"
   inkscape:cy="52.264751"
   inkscape:window-x="-8"
   inkscape:window-y="-8"
   inkscape:window-maximized="1"
   inkscape:current-layer="Icons" />

<path
   d="M 93.323496,46.119774 54.177804,6.9770058 c -2.252506,-2.2544652 -5.908771,-2.2544652 -8.164427,0 l -8.128324,8.1289782 10.310988,10.311338 c 2.397014,-0.809298 5.144524,-0.266683 7.054305,1.643482 1.919716,1.922069 2.458497,4.692981 1.628833,7.098052 l 9.937864,9.937428 c 2.404293,-0.82848 5.178266,-0.293243 7.098081,1.630006 2.684061,2.683264 2.684061,7.03116 0,9.715308 -2.684455,2.684838 -7.032369,2.684838 -9.718004,0 -2.018187,-2.019752 -2.517322,-4.985044 -1.495146,-7.471664 l -9.268054,-9.26831 -7.87e-4,24.389001 c 0.654366,0.323935 1.271941,0.756276 1.817213,1.299184 2.683275,2.682968 2.683275,7.030077 0,9.717275 -2.684061,2.68287 -7.033942,2.68287 -9.715348,0 -2.683668,-2.687198 -2.683668,-7.034307 0,-9.717275 0.663219,-0.662036 1.430614,-1.163137 2.249457,-1.498976 l 0,-24.615351 c -0.818843,-0.334757 -1.585057,-0.832317 -2.249457,-1.499075 -2.032745,-2.031163 -2.522339,-5.014555 -1.4798,-7.510717 L 33.891079,19.099647 7.0502874,45.938771 c -2.2552373,2.256334 -2.2552373,5.912584 0,8.167441 L 46.195561,93.249029 c 2.253687,2.254465 5.908773,2.254465 8.165607,0 l 38.962328,-38.96142 c 2.254474,-2.255645 2.254474,-5.912977 0,-8.167835"
   inkscape:connector-curvature="0"
   id="path28"
   style="fill:#000000;fill-opacity:1;fill-rule:nonzero;stroke:none" /></svg>