<?xml version="1.0" encoding="UTF-8" standalone="no"?>
<!-- Generator: Adobe Illustrator 16.0.0, SVG Export Plug-In . SVG Version: 6.00 Build 0)  -->

<svg
   xmlns:dc="http://purl.org/dc/elements/1.1/"
   xmlns:cc="http://creativecommons.org/ns#"
   xmlns:rdf="http://www.w3.org/1999/02/22-rdf-syntax-ns#"
   xmlns:svg="http://www.w3.org/2000/svg"
   xmlns="http://www.w3.org/2000/svg"
   xmlns:xlink="http://www.w3.org/1999/xlink"
   xmlns:sodipodi="http://sodipodi.sourceforge.net/DTD/sodipodi-0.dtd"
   xmlns:inkscape="http://www.inkscape.org/namespaces/inkscape"
   version="1.1"
   id="Layer_1"
   x="0px"
   y="0px"
   width="100"
   height="100"
   viewBox="0 0 99.999997 99.999997"
   enable-background="new 0 0 79.37 79.37"
   xml:space="preserve"
   inkscape:version="0.48.2 r9819"
   sodipodi:docname="google_plus.svg"><metadata
   id="metadata87"><rdf:RDF><cc:Work
       rdf:about=""><dc:format>image/svg+xml</dc:format><dc:type
         rdf:resource="http://purl.org/dc/dcmitype/StillImage" /></cc:Work></rdf:RDF></metadata><defs
   id="defs85">
	
		
	

	
		
	

	
		
	







		<linearGradient
   id="SVGID_4_"
   gradientUnits="userSpaceOnUse"
   x1="23.8564"
   y1="75.9692"
   x2="23.8564"
   y2="6.9496999">
			<stop
   offset="0"
   style="stop-color:#F2F2F2"
   id="stop45" />
			<stop
   offset="0.2413"
   style="stop-color:#F6F6F6"
   id="stop47" />
			<stop
   offset="1"
   style="stop-color:#FFFFFF"
   id="stop49" />
		</linearGradient>
		
	<linearGradient
   inkscape:collect="always"
   xlink:href="#SVGID_4_"
   id="linearGradient3087"
   gradientUnits="userSpaceOnUse"
   x1="23.8564"
   y1="75.9692"
   x2="23.8564"
   y2="6.9496999"
   gradientTransform="matrix(1.1131263,0,0,1.1167755,5.4040519,8.7247659)" />
		
	
		<linearGradient
   id="SVGID_1_"
   gradientUnits="userSpaceOnUse"
   x1="39.4697"
   y1="76.283699"
   x2="39.4697"
   y2="2.2837">
			<stop
   offset="0"
   style="stop-color:#B62C25"
   id="stop10" />
			<stop
   offset="1"
   style="stop-color:#E74824"
   id="stop12" />
		</linearGradient>
		
	<linearGradient
   inkscape:collect="always"
   xlink:href="#SVGID_1_"
   id="linearGradient3096"
   gradientUnits="userSpaceOnUse"
   x1="39.4697"
   y1="76.283699"
   x2="39.4697"
   y2="2.2837"
   gradientTransform="matrix(1.1131263,0,0,1.1167755,78.720405,12.928685)" /></defs><sodipodi:namedview
   pagecolor="#ffffff"
   bordercolor="#666666"
   borderopacity="1"
   objecttolerance="10"
   gridtolerance="10"
   guidetolerance="10"
   inkscape:pageopacity="0"
   inkscape:pageshadow="2"
   inkscape:window-width="1111"
   inkscape:window-height="848"
   id="namedview83"
   showgrid="false"
   inkscape:zoom="5.9468311"
   inkscape:cx="61.465011"
   inkscape:cy="47.897126"
   inkscape:window-x="58"
   inkscape:window-y="42"
   inkscape:window-maximized="0"
   inkscape:current-layer="Layer_1" />
<path
   d="m 13.709809,7.0729025 c -3.453392,0 -6.2499997,2.749347 -6.2499997,6.1250005 l 0,9.03125 C 14.46471,16.41187 22.139809,15.443515 28.584809,15.322903 l 25.96875,0 -6.90625,5.5625 -7.53125,0 c 3.01658,2.623306 7.53125,7.329552 7.53125,15.6875 0,9.154208 -4.80718,13.486269 -9.96875,17.5625 -1.59733,1.605923 -3.4375,3.336451 -3.4375,6.0625 0,2.718231 1.83839,4.197958 3.1875,5.3125 l 4.4375,3.46875 c 5.40423,4.581013 12.4395,8.806001 12.4375,17.34375 0,2.278223 -0.378646,3.712948 -1.09375,6.03125 l 32.625,0 c 3.453392,0 6.25,-2.719045 6.25,-6.09375 l 0,-48.75 -15.59375,0 0,15.78125 -6.6875,0 0,-15.78125 -15.59375,0 0,-6.5625 15.59375,0 0,-15.625 6.6875,0 0,15.625 15.59375,0 0,-17.75 c 0,-3.3747055 -2.796608,-6.1250005 -6.25,-6.1250005 l -72.125,0 z m 8.5625,12.4062505 c -3.19801,0 -6.62352,1.617858 -8.59375,4.09375 -2.08934,2.599853 -2.40625,5.932119 -2.40625,9.15625 0,8.285357 4.33711,20.5625 14.90625,20.5625 3.07,0 6.19842,-0.783141 8.21875,-3.09375 2.30639,-2.650108 3.21875,-6.152893 3.21875,-7.9375 0,-8.910752 -5.14974,-22.78125 -15.34375,-22.78125 z m -14.8124997,3.28125 0,0.28125 c 0.059249,-0.08747 0.032682,-0.194576 0,-0.28125 z m 0,31.5 0,20.4375 c 7.0075797,-3.011892 14.2148657,-3.182126 18.9062497,-3.5 -1.72312,-2.231317 -3.6875,-4.573476 -3.6875,-8.40625 0,-2.102888 0.60542,-3.324955 1.21875,-4.8125 -1.35468,0.122845 -2.67513,0.25 -3.90625,0.25 -5.557763,0 -9.172706,-1.179474 -12.5312497,-3.96875 z m 20.2499997,20.40625 c -1.1109,0 -7.74579,0.265648 -12.90625,2 -1.767886,0.647606 -4.8132627,1.045699 -7.3437497,4.46875 l 0,5.125 c 0,3.375652 2.7975477,6.09375 6.2499997,6.09375 l 32.15625,0 c 0.02257,-0.334353 0.03125,-0.567603 0.03125,-1.21875 0,-6.320949 -5.99905,-9.658732 -15.34375,-16.34375 -0.97955,-0.126195 -1.62154,-0.125 -2.84375,-0.125 z"
   id="LinkedIn__x28_alt_x29_"
   inkscape:connector-curvature="0" />
<linearGradient
   id="SVGID_2_"
   gradientUnits="userSpaceOnUse"
   x1="39.4697"
   y1="77.283699"
   x2="39.4697"
   y2="1.2837"
   gradientTransform="matrix(1.1131263,0,0,1.1167755,6.749303,6.875041)">
	<stop
   offset="0"
   style="stop-color:#7D2617"
   id="stop17" />
	<stop
   offset="1"
   style="stop-color:#BF3B27"
   id="stop19" />
</linearGradient>

<linearGradient
   id="SVGID_3_"
   gradientUnits="userSpaceOnUse"
   x1="39.4697"
   y1="76.283699"
   x2="39.4697"
   y2="2.2837"
   gradientTransform="matrix(1.1131263,0,0,1.1167755,6.749303,6.875041)">
	<stop
   offset="0"
   style="stop-color:#B62C25"
   id="stop24" />
	<stop
   offset="1"
   style="stop-color:#E74824"
   id="stop26" />
</linearGradient>




<linearGradient
   id="SVGID_5_"
   gradientUnits="userSpaceOnUse"
   x1="1.4692"
   y1="27.450701"
   x2="2.4691999"
   y2="27.450701">
	<stop
   offset="0"
   style="stop-color:#F2F2F2"
   id="stop54" />
	<stop
   offset="1"
   style="stop-color:#F2F2F2"
   id="stop56" />
</linearGradient>

<linearGradient
   id="SVGID_6_"
   gradientUnits="userSpaceOnUse"
   x1="1.5488"
   y1="63.7593"
   x2="2.4691999"
   y2="63.7593">
	<stop
   offset="0"
   style="stop-color:#E7E7E7"
   id="stop61" />
	<stop
   offset="0.1394"
   style="stop-color:#E9E9E9"
   id="stop63" />
	<stop
   offset="1"
   style="stop-color:#F2F2F2"
   id="stop65" />
</linearGradient>








</svg>