<?xml version="1.0" encoding="UTF-8" standalone="no"?>
<!-- Generator: Adobe Illustrator 15.0.0, SVG Export Plug-In . SVG Version: 6.00 Build 0)  -->

<svg
   xmlns:dc="http://purl.org/dc/elements/1.1/"
   xmlns:cc="http://creativecommons.org/ns#"
   xmlns:rdf="http://www.w3.org/1999/02/22-rdf-syntax-ns#"
   xmlns:svg="http://www.w3.org/2000/svg"
   xmlns="http://www.w3.org/2000/svg"
   xmlns:sodipodi="http://sodipodi.sourceforge.net/DTD/sodipodi-0.dtd"
   xmlns:inkscape="http://www.inkscape.org/namespaces/inkscape"
   version="1.1"
   id="Icons"
   x="0px"
   y="0px"
   width="100px"
   height="100px"
   viewBox="0 0 100 100"
   style="enable-background:new 0 0 100 100;"
   xml:space="preserve"
   inkscape:version="0.48.2 r9819"
   sodipodi:docname="linkedin_alt.svg"><metadata
   id="metadata8"><rdf:RDF><cc:Work
       rdf:about=""><dc:format>image/svg+xml</dc:format><dc:type
         rdf:resource="http://purl.org/dc/dcmitype/StillImage" /><dc:title></dc:title></cc:Work></rdf:RDF></metadata><defs
   id="defs6" /><sodipodi:namedview
   pagecolor="#ffffff"
   bordercolor="#666666"
   borderopacity="1"
   objecttolerance="10"
   gridtolerance="10"
   guidetolerance="10"
   inkscape:pageopacity="0"
   inkscape:pageshadow="2"
   inkscape:window-width="1280"
   inkscape:window-height="1002"
   id="namedview4"
   showgrid="false"
   inkscape:zoom="4.72"
   inkscape:cx="69.599185"
   inkscape:cy="58.958756"
   inkscape:window-x="-8"
   inkscape:window-y="-8"
   inkscape:window-maximized="1"
   inkscape:current-layer="Icons" />

<path
   style="fill:#000000;fill-opacity:1;fill-rule:evenodd"
   id="path3613"
   d="m 81.156157,44.069302 c 0.02937,-0.46626 0.07291,-0.928471 0.07291,-1.400785 0,-12.899817 -10.958986,-23.357327 -24.47851,-23.357327 -9.74893,0 -18.141746,5.449778 -22.078809,13.319655 -1.910187,-1.412912 -4.301589,-2.262668 -6.903381,-2.262668 -6.236804,0 -11.292499,4.824062 -11.292499,10.774396 0,1.118214 0.177175,2.198084 0.510348,3.211344 -4.861939,2.759196 -8.1303345,7.805272 -8.1303345,13.594147 0,8.655048 7.2845935,15.675169 16.3231695,15.808386 l 0.191638,0.01044 0.06664,0.002 0.06663,-0.002 h 48.544583 c 0.2958,0.01461 0.58535,0.04237 0.885316,0.04237 8.949004,0 16.204445,-6.921221 16.204445,-15.461212 0,-6.436779 -4.122457,-11.949137 -9.982221,-14.278413 z M 30.945073,61.847683 c -1.643547,-1.441363 -2.66636,-3.189322 -3.07673,-5.247927 -0.135335,-0.688296 -0.204035,-1.408863 -0.204035,-2.167796 -0.0021,-2.934807 1.099881,-5.361168 3.307961,-7.272236 2.206014,-1.913468 5.011944,-2.872227 8.419883,-2.870411 3.497534,0 6.795087,1.267588 9.707271,3.804748 0.726987,0.631978 1.428999,1.344278 2.10601,2.1335 l 3.745218,4.267167 c 0.648033,0.859858 1.343794,1.602426 2.062258,2.228142 1.922714,1.673481 4.009974,2.510942 5.772481,2.510942 1.499637,0 2.751564,-0.44405 3.759784,-1.336201 0.879291,-0.81141 1.375072,-1.782276 1.485458,-2.906544 l 0.02325,-0.49231 c 0,-0.48845 -0.07077,-0.950681 -0.216433,-1.384441 -0.239419,-0.722591 -0.679284,-1.37273 -1.316521,-1.952022 -0.995721,-0.920414 -2.249946,-1.374567 -3.7704,-1.374567 -1.86876,0 -3.716472,0.60958 -5.741229,2.510733 L 53.69299,48.519951 53.28887,48.081954 c 2.89989,-2.753142 5.795183,-3.786588 9.692678,-3.786588 3.453783,0 6.249292,0.950681 8.388637,2.848223 l 0.04791,0.0382 c 2.174551,1.893304 3.26422,4.341666 3.26422,7.345294 0,0.742777 -0.06875,1.453074 -0.204139,2.129242 -0.408079,2.032575 -1.432963,3.764378 -3.070489,5.1995 -1.607946,1.43531 -3.570238,2.333514 -5.886844,2.690562 -0.772417,0.11919 -1.585022,0.179724 -2.437013,0.179724 -3.576695,-0.002 -6.884863,-1.241329 -9.730386,-3.715929 -0.76844,-0.670115 -1.503795,-1.429048 -2.201623,-2.280828 l -3.745425,-4.236692 c -0.63326,-0.849776 -1.318587,-1.584475 -2.031008,-2.206162 -1.918555,-1.669452 -4.032882,-2.504867 -5.845184,-2.504867 -0.562441,0 -1.089473,0.06429 -1.58107,0.191831 -0.816582,0.211932 -1.531095,0.603506 -2.147696,1.172904 -0.75408,0.696165 -1.226952,1.497681 -1.414432,2.403754 -0.0625,0.300752 -0.09582,0.615634 -0.09375,0.940599 0,1.287753 0.479122,2.389832 1.437341,3.304171 l 0.07283,0.06659 c 1.029037,0.912335 2.293491,1.366488 3.793334,1.366488 1.885187,0 3.74124,-0.6134 5.76184,-2.530918 l 3.299645,3.731877 0.364526,0.42589 c -3.012161,2.785455 -5.876409,3.839065 -9.623926,3.83704 -3.45169,0 -6.268055,-0.948656 -8.453226,-2.843964 z"
   clip-rule="evenodd"
   inkscape:connector-curvature="0" /></svg>