<?xml version="1.0" encoding="UTF-8" standalone="no"?>
<!-- Generator: Adobe Illustrator 15.0.0, SVG Export Plug-In . SVG Version: 6.00 Build 0)  -->

<svg
   xmlns:dc="http://purl.org/dc/elements/1.1/"
   xmlns:cc="http://creativecommons.org/ns#"
   xmlns:rdf="http://www.w3.org/1999/02/22-rdf-syntax-ns#"
   xmlns:svg="http://www.w3.org/2000/svg"
   xmlns="http://www.w3.org/2000/svg"
   xmlns:sodipodi="http://sodipodi.sourceforge.net/DTD/sodipodi-0.dtd"
   xmlns:inkscape="http://www.inkscape.org/namespaces/inkscape"
   version="1.1"
   id="Icons"
   x="0px"
   y="0px"
   width="100px"
   height="100px"
   viewBox="0 0 100 100"
   style="enable-background:new 0 0 100 100;"
   xml:space="preserve"
   inkscape:version="0.48.2 r9819"
   sodipodi:docname="resume.svg"><metadata
   id="metadata8"><rdf:RDF><cc:Work
       rdf:about=""><dc:format>image/svg+xml</dc:format><dc:type
         rdf:resource="http://purl.org/dc/dcmitype/StillImage" /><dc:title></dc:title></cc:Work></rdf:RDF></metadata><defs
   id="defs6" /><sodipodi:namedview
   pagecolor="#ffffff"
   bordercolor="#666666"
   borderopacity="1"
   objecttolerance="10"
   gridtolerance="10"
   guidetolerance="10"
   inkscape:pageopacity="0"
   inkscape:pageshadow="2"
   inkscape:window-width="1280"
   inkscape:window-height="1002"
   id="namedview4"
   showgrid="false"
   inkscape:zoom="6.675088"
   inkscape:cx="44.42326"
   inkscape:cy="44.371385"
   inkscape:window-x="-8"
   inkscape:window-y="-8"
   inkscape:window-maximized="1"
   inkscape:current-layer="Icons" />
<path
   id="LinkedIn__x28_alt_x29_"
   d="m 87.877,5.608 -76.703,0 c -3.673,0 -6.65,2.886 -6.65,6.448 l 0,77.101 c 0,3.562 2.978,6.451 6.65,6.451 l 76.703,0 c 3.673,0 6.646,-2.89 6.646,-6.451 l 0,-77.101 c 0,-3.561 -2.973,-6.448 -6.646,-6.448 z"
   inkscape:connector-curvature="0"
   sodipodi:nodetypes="sssssssss" />
<g
   id="g2989"
   transform="matrix(0.84547628,0,0,0.83637217,18.191943,15.949422)"
   style="fill:#ffffff"><path
     id="path2991"
     d="m 80.468506,13.322834 c 0,-1.062992 -0.425197,-2.055118 -1.169292,-2.799212 L 69.980317,1.2047244 c -1.559056,-1.55905509 -4.110237,-1.55905509 -5.669292,0 L 62.078742,3.4724408 C 60.590553,1.4881889 58.25197,0.17716535 55.629923,0.17716535 l -47.6220488,0 C 3.5787402,0.17716535 0,3.7559053 0,8.185039 l 0,63.49606 c 0,4.429133 3.5787402,8.007873 8.0078742,8.007873 l 47.6220488,0 c 4.429134,0 8.007874,-3.57874 8.007874,-8.007873 l 0,-39.862203 15.661417,-15.661416 c 0.744095,-0.744095 1.169292,-1.771654 1.169292,-2.834646 z m -24.838583,58.358265 -47.6220488,0 0,-63.49606 47.6220488,0 0,1.7007873 -6.34252,6.3425197 c -0.708662,-0.708662 -1.665355,-1.098425 -2.728347,-1.098425 l -28.488189,0 c -2.232284,0 -4.003938,1.771653 -4.003938,3.968503 0,2.232284 1.771654,4.003937 4.003938,4.003937 l 24.34252,0 -5.988189,6.023622 -18.354331,0 c -2.232284,0 -4.003938,1.771653 -4.003938,4.003937 0,2.19685 1.771654,3.968503 4.003938,3.968503 l 10.346457,0 -4.570867,4.570866 c -0.318897,0.354331 -0.602362,0.708662 -0.81496,1.133859 l -0.283465,0.637795 -4.677165,0 c -2.232284,0 -4.003938,1.807086 -4.003938,4.003937 0,2.19685 1.771654,4.003936 4.003938,4.003936 l 0.921259,0 -4.145669,8.858268 c -0.708661,1.523622 -0.389764,3.330708 0.814961,4.535433 0.744094,0.779527 1.771653,1.169291 2.834645,1.169291 0.56693,0 1.133859,-0.141732 1.665355,-0.389764 l 17.503937,-8.185039 c 0.425197,-0.177165 0.814961,-0.46063 1.133859,-0.779527 l 5.208661,-5.208662 2.551181,0 c 2.196851,0 4.003937,-1.807086 4.003937,-4.003936 0,-0.744095 -0.212598,-1.417323 -0.566929,-1.984252 l 5.633859,-5.633858 0,31.854329 z m -21.968505,-21.188975 -6.874016,3.224409 3.22441,-6.874016 27.992126,-28.027557 3.68504,3.649606 -28.02756,28.027558 z m 33.661418,-33.696849 -3.649606,-3.649606 3.472441,-3.4724411 3.649606,3.6496061 -3.472441,3.472441 z"
     style="fill:#ffffff;fill-opacity:1;fill-rule:nonzero;stroke:none"
     inkscape:connector-curvature="0" /></g></svg>