<?xml version="1.0" encoding="iso-8859-1"?>
<!-- Generator: Adobe Illustrator 15.0.0, SVG Export Plug-In . SVG Version: 6.00 Build 0)  -->
<!DOCTYPE svg PUBLIC "-//W3C//DTD SVG 1.1//EN" "http://www.w3.org/Graphics/SVG/1.1/DTD/svg11.dtd">
<svg version="1.1" id="Icons" xmlns="http://www.w3.org/2000/svg" xmlns:xlink="http://www.w3.org/1999/xlink" x="0px" y="0px"
	 width="100px" height="100px" viewBox="0 0 100 100" style="enable-background:new 0 0 100 100;" xml:space="preserve">
<path id="YouTube" d="M75.94,70.832H71l0.023-2.869c0-1.275,1.047-2.318,2.327-2.318h0.315c1.282,0,2.332,1.043,2.332,2.318
	L75.94,70.832z M57.413,64.684c-1.253,0-2.278,0.842-2.278,1.873V80.51c0,1.029,1.025,1.869,2.278,1.869
	c1.258,0,2.284-0.84,2.284-1.869V66.557C59.697,65.525,58.671,64.684,57.413,64.684z M87.5,56.879v26.544
	C87.5,89.79,81.978,95,75.23,95H24.771C18.02,95,12.5,89.79,12.5,83.423V56.879c0-6.367,5.52-11.578,12.271-11.578H75.23
	C81.978,45.301,87.5,50.512,87.5,56.879z M28.137,86.305l-0.004-27.961l6.255,0.002v-4.143l-16.674-0.025v4.073l5.205,0.015v28.039
	H28.137z M46.887,62.509h-5.215v14.931c0,2.16,0.131,3.24-0.008,3.621c-0.424,1.158-2.33,2.387-3.073,0.125
	c-0.126-0.396-0.015-1.591-0.017-3.643l-0.021-15.034h-5.186l0.016,14.797c0.004,2.268-0.051,3.96,0.018,4.729
	c0.127,1.357,0.082,2.94,1.341,3.843c2.346,1.691,6.843-0.252,7.968-2.668l-0.01,3.083l4.188,0.005V62.509z M63.57,79.607
	L63.559,67.18c-0.004-4.736-3.547-7.573-8.357-3.741l0.021-9.239l-5.21,0.008l-0.025,31.89l4.283-0.063l0.39-1.986
	C60.137,89.072,63.578,85.631,63.57,79.607z M79.891,77.96l-3.911,0.021c-0.002,0.155-0.007,0.334-0.009,0.529v2.182
	c0,1.167-0.965,2.118-2.137,2.118h-0.766c-1.174,0-2.138-0.951-2.138-2.118v-0.242v-2.4v-3.097h8.954v-3.37
	c0-2.463-0.063-4.925-0.267-6.333c-0.64-4.454-6.892-5.161-10.05-2.881c-0.992,0.712-1.749,1.665-2.189,2.946
	c-0.445,1.281-0.665,3.031-0.665,5.254v7.409C66.714,90.296,81.676,88.555,79.891,77.96z M59.833,37.732
	c0.269,0.654,0.687,1.184,1.254,1.584c0.56,0.394,1.277,0.592,2.134,0.592c0.752,0,1.418-0.203,1.998-0.622
	c0.578-0.417,1.065-1.04,1.462-1.871l-0.098,2.046h5.813V14.74h-4.576v19.24c0,1.042-0.858,1.895-1.907,1.895
	c-1.043,0-1.904-0.853-1.904-1.895V14.74h-4.776v16.674c0,2.124,0.038,3.54,0.101,4.258C59.401,36.385,59.564,37.069,59.833,37.732z
	 M42.217,23.77c0-2.373,0.198-4.226,0.591-5.562c0.396-1.331,1.107-2.401,2.137-3.208c1.027-0.811,2.342-1.217,3.941-1.217
	c1.345,0,2.497,0.264,3.46,0.781c0.967,0.52,1.712,1.195,2.23,2.028c0.527,0.836,0.885,1.695,1.076,2.574
	c0.195,0.891,0.291,2.235,0.291,4.048v6.252c0,2.293-0.092,3.98-0.27,5.051c-0.177,1.074-0.557,2.07-1.145,3.004
	c-0.581,0.924-1.33,1.615-2.238,2.056c-0.918,0.445-1.968,0.663-3.154,0.663c-1.325,0-2.441-0.183-3.361-0.565
	c-0.923-0.38-1.636-0.953-2.144-1.714c-0.513-0.762-0.874-1.69-1.092-2.772c-0.219-1.081-0.323-2.707-0.323-4.874V23.77z
	 M46.77,33.59c0,1.4,1.042,2.543,2.311,2.543c1.27,0,2.307-1.143,2.307-2.543V20.43c0-1.398-1.037-2.541-2.307-2.541
	c-1.269,0-2.311,1.143-2.311,2.541V33.59z M30.682,40.235h5.484l0.006-18.96l6.48-16.242h-5.998l-3.445,12.064L29.715,5h-5.936
	l6.894,16.284L30.682,40.235z"/>
</svg>
