<?xml version="1.0" encoding="UTF-8" standalone="no"?>
<!-- Created with Inkscape (http://www.inkscape.org/) -->

<svg
   xmlns:dc="http://purl.org/dc/elements/1.1/"
   xmlns:cc="http://creativecommons.org/ns#"
   xmlns:rdf="http://www.w3.org/1999/02/22-rdf-syntax-ns#"
   xmlns:svg="http://www.w3.org/2000/svg"
   xmlns="http://www.w3.org/2000/svg"
   xmlns:sodipodi="http://sodipodi.sourceforge.net/DTD/sodipodi-0.dtd"
   xmlns:inkscape="http://www.inkscape.org/namespaces/inkscape"
   width="28mm"
   height="28mm"
   viewBox="0 0 28 28.000001"
   version="1.1"
   id="svg8"
   sodipodi:docname="mark4.svg"
   inkscape:version="0.92.5 (2060ec1f9f, 2020-04-08)">
  <defs
     id="defs2" />
  <sodipodi:namedview
     id="base"
     pagecolor="#ffffff"
     bordercolor="#666666"
     borderopacity="1.0"
     inkscape:pageopacity="0.0"
     inkscape:pageshadow="2"
     inkscape:zoom="7.9195959"
     inkscape:cx="51.111394"
     inkscape:cy="52.055423"
     inkscape:document-units="mm"
     inkscape:current-layer="layer1"
     showgrid="false"
     fit-margin-top="5"
     fit-margin-left="5"
     fit-margin-right="5"
     fit-margin-bottom="5"
     inkscape:window-width="1935"
     inkscape:window-height="2092"
     inkscape:window-x="1920"
     inkscape:window-y="27"
     inkscape:window-maximized="0" />
  <metadata
     id="metadata5">
    <rdf:RDF>
      <cc:Work
         rdf:about="">
        <dc:format>image/svg+xml</dc:format>
        <dc:type
           rdf:resource="http://purl.org/dc/dcmitype/StillImage" />
        <dc:title />
      </cc:Work>
    </rdf:RDF>
  </metadata>
  <g
     inkscape:label="Layer 1"
     inkscape:groupmode="layer"
     id="layer1"
     transform="translate(-42.975288,-46.988953)">
    <path
       d="m 66.742262,62.993252 2.38125,-1.5875 c 0.423333,-0.264584 0.423333,-0.873125 0,-1.164167 l -2.38125,-1.5875 C 66.45122,58.468877 66.345387,58.072002 66.504137,57.754502 l 1.27,-2.566459 c 0.211666,-0.449791 -0.07937,-0.978958 -0.582084,-1.005416 l -2.8575,-0.185209 c -0.343958,-0.02646 -0.635,-0.291041 -0.661458,-0.661458 l -0.15875,-2.831042 c -0.02646,-0.502708 -0.555625,-0.79375 -1.005417,-0.582083 l -2.566458,1.27 c -0.3175,0.15875 -0.687917,0.05292 -0.899583,-0.238125 l -1.5875,-2.38125 c -0.264584,-0.423333 -0.873125,-0.423333 -1.164167,0 l -1.5875,2.38125 c -0.185208,0.291042 -0.582083,0.396875 -0.899583,0.238125 l -2.566459,-1.27 c -0.449791,-0.211667 -0.9525,0.07937 -1.005416,0.582083 l -0.185209,2.8575 c -0.02646,0.343959 -0.291041,0.635 -0.661458,0.661459 l -2.831042,0.15875 c -0.502708,0.02646 -0.79375,0.555625 -0.582083,1.005416 l 1.27,2.566459 c 0.15875,0.3175 0.05292,0.687916 -0.238125,0.899583 l -2.38125,1.5875 c -0.423333,0.264583 -0.423333,0.873125 0,1.164167 l 2.38125,1.5875 c 0.291042,0.185208 0.396875,0.582083 0.238125,0.899583 l -1.27,2.566458 c -0.211667,0.449792 0.07938,0.9525 0.582083,1.005417 l 2.8575,0.185208 c 0.343959,0.02646 0.635,0.291042 0.661459,0.661459 l 0.15875,2.831041 c 0.02646,0.502709 0.555625,0.79375 1.005416,0.582084 l 2.566459,-1.27 c 0.3175,-0.15875 0.687916,-0.05292 0.899583,0.238125 l 1.5875,2.38125 c 0.264583,0.423333 0.873125,0.423333 1.164167,0 l 1.5875,-2.38125 c 0.185208,-0.291042 0.582083,-0.396875 0.899583,-0.238125 l 2.566458,1.27 c 0.449792,0.211666 0.978959,-0.07937 1.005417,-0.582084 l 0.185208,-2.8575 c 0.02646,-0.343958 0.291042,-0.635 0.661459,-0.661458 l 2.831041,-0.15875 c 0.502709,-0.02646 0.79375,-0.555625 0.582084,-1.005417 l -1.27,-2.566458 c -0.132292,-0.3175 -0.05292,-0.714375 0.238125,-0.899583 z m -8.09625,-7.62 c 0.714375,0 1.296458,0.582083 1.296458,1.296458 0,0.714375 -0.582083,1.296458 -1.296458,1.296458 -0.714375,0 -1.296459,-0.582083 -1.296459,-1.296458 0,-0.714375 0.582084,-1.296458 1.296459,-1.296458 z m 3.33375,8.307916 c -0.105834,0.211667 -0.3175,0.3175 -0.529167,0.3175 h -9.154583 c -0.211667,0 -0.423334,-0.132291 -0.529167,-0.3175 -0.105833,-0.211666 -0.07937,-0.449791 0.02646,-0.635 l 3.122082,-4.577291 c 0.238125,-0.343959 0.767291,-0.343959 1.005416,0 l 1.74625,2.566458 0.9525,-1.375833 c 0.238125,-0.343959 0.767292,-0.343959 1.005417,0 l 2.328333,3.386666 c 0.132292,0.185209 0.132292,0.423334 0.02646,0.635 z"
       id="path12"
       inkscape:connector-curvature="0"
       style="stroke-width:0.26458332" />
  </g>
</svg>
