<?xml version="1.0" encoding="UTF-8" standalone="no"?>
<!-- Created with Inkscape (http://www.inkscape.org/) -->

<svg
   xmlns:dc="http://purl.org/dc/elements/1.1/"
   xmlns:cc="http://creativecommons.org/ns#"
   xmlns:rdf="http://www.w3.org/1999/02/22-rdf-syntax-ns#"
   xmlns:svg="http://www.w3.org/2000/svg"
   xmlns="http://www.w3.org/2000/svg"
   xmlns:sodipodi="http://sodipodi.sourceforge.net/DTD/sodipodi-0.dtd"
   xmlns:inkscape="http://www.inkscape.org/namespaces/inkscape"
   width="18.713318mm"
   height="19.136396mm"
   viewBox="0 0 18.713318 19.136397"
   version="1.1"
   id="svg8"
   sodipodi:docname="mark3.svg"
   inkscape:version="0.92.5 (2060ec1f9f, 2020-04-08)">
  <defs
     id="defs2" />
  <sodipodi:namedview
     id="base"
     pagecolor="#ffffff"
     bordercolor="#666666"
     borderopacity="1.0"
     inkscape:pageopacity="0.0"
     inkscape:pageshadow="2"
     inkscape:zoom="7.9195959"
     inkscape:cx="11.713533"
     inkscape:cy="35.512763"
     inkscape:document-units="mm"
     inkscape:current-layer="layer1"
     showgrid="false"
     fit-margin-top="5"
     fit-margin-left="5"
     fit-margin-right="5"
     fit-margin-bottom="5"
     inkscape:window-width="1935"
     inkscape:window-height="2092"
     inkscape:window-x="1920"
     inkscape:window-y="27"
     inkscape:window-maximized="0" />
  <metadata
     id="metadata5">
    <rdf:RDF>
      <cc:Work
         rdf:about="">
        <dc:format>image/svg+xml</dc:format>
        <dc:type
           rdf:resource="http://purl.org/dc/dcmitype/StillImage" />
        <dc:title />
      </cc:Work>
    </rdf:RDF>
  </metadata>
  <g
     inkscape:label="Layer 1"
     inkscape:groupmode="layer"
     id="layer1"
     transform="translate(-47.505308,-51.425531)">
    <g
       id="g887"
       transform="translate(-0.26726953,1.1024868)">
      <g
         aria-label="L"
         style="font-style:normal;font-weight:normal;font-size:10.58333302px;line-height:1.25;font-family:sans-serif;letter-spacing:0px;word-spacing:0px;fill:#000000;fill-opacity:1;stroke:none;stroke-width:0.26458332"
         id="text819">
        <path
           d="m 55.305725,59.570465 h 3.566583 v -1.778 h -0.169333 c 0,1.259417 -0.179917,1.608667 -0.867834,1.608667 h -0.677333 v -7.059083 h 0.47625 v -0.169334 h -2.328333 v 0.169334 h 0.47625 v 7.059083 h -0.47625 z"
           style="font-style:normal;font-variant:normal;font-weight:900;font-stretch:normal;font-size:10.58333302px;font-family:Emberly;-inkscape-font-specification:'Emberly, Heavy';font-variant-ligatures:normal;font-variant-caps:normal;font-variant-numeric:normal;font-feature-settings:normal;text-align:start;writing-mode:lr-tb;text-anchor:start;stroke-width:0.26458332"
           id="path889" />
      </g>
      <g
         aria-label="o"
         style="font-style:normal;font-weight:normal;font-size:10.58333302px;line-height:1.25;font-family:sans-serif;letter-spacing:0px;word-spacing:0px;fill:#000000;fill-opacity:1;stroke:none;stroke-width:0.26458332"
         id="text823">
        <path
           d="m 60.741005,62.461463 q -0.5588,0 -0.948267,-0.254 -0.385233,-0.258233 -0.550333,-0.762 -0.160867,-0.503766 -0.05927,-1.240366 0.09313,-0.6858 0.372533,-1.202267 0.283634,-0.516466 0.740834,-0.8001 0.4572,-0.287866 1.0668,-0.287866 0.5588,0 0.935566,0.262466 0.381,0.258234 0.541867,0.770467 0.1651,0.508 0.0635,1.2573 -0.09313,0.668866 -0.372533,1.176866 -0.275167,0.508 -0.728134,0.795867 -0.448733,0.283633 -1.062566,0.283633 z m 0.08043,-0.5334 q 0.385233,0 0.681567,-0.2032 0.300566,-0.2032 0.4953,-0.592666 0.198966,-0.389467 0.270933,-0.944033 0.06773,-0.499534 -0.0085,-0.893234 -0.07197,-0.3937 -0.313266,-0.618066 -0.237067,-0.2286 -0.6604,-0.2286 -0.3937,0 -0.694267,0.2032 -0.300567,0.198966 -0.499533,0.588433 -0.194734,0.389467 -0.270934,0.948267 -0.0635,0.499533 0.0085,0.893233 0.0762,0.389466 0.3175,0.618066 0.2413,0.2286 0.6731,0.2286 z"
           style="font-style:italic;font-variant:normal;font-weight:300;font-stretch:normal;font-size:8.46666622px;font-family:'Public Sans Thin';-inkscape-font-specification:'Public Sans Thin, Light Italic';font-variant-ligatures:normal;font-variant-caps:normal;font-variant-numeric:normal;font-feature-settings:normal;text-align:start;writing-mode:lr-tb;text-anchor:start;stroke-width:0.26458332"
           id="path892" />
      </g>
      <g
         aria-label="o"
         style="font-style:normal;font-weight:normal;font-size:10.58333302px;line-height:1.25;font-family:sans-serif;letter-spacing:0px;word-spacing:0px;fill:#000000;fill-opacity:1;stroke:none;stroke-width:0.26458332"
         id="text823-9">
        <path
           d="m 52.882415,62.545349 q -0.558799,0 -0.948266,-0.254 -0.385233,-0.258234 -0.550333,-0.762 -0.160867,-0.503767 -0.05927,-1.240367 0.09313,-0.6858 0.372533,-1.202267 0.283634,-0.516466 0.740833,-0.8001 0.4572,-0.287866 1.0668,-0.287866 0.5588,0 0.935567,0.262466 0.381,0.258234 0.541867,0.770467 0.1651,0.508 0.0635,1.2573 -0.09313,0.668867 -0.372534,1.176867 -0.275166,0.508 -0.728133,0.795866 -0.448733,0.283634 -1.062567,0.283634 z m 0.08043,-0.5334 q 0.385233,0 0.681566,-0.2032 0.300567,-0.2032 0.4953,-0.592667 0.198967,-0.389467 0.270934,-0.944033 0.06773,-0.499534 -0.0085,-0.893234 -0.07197,-0.3937 -0.313267,-0.618066 -0.237066,-0.2286 -0.6604,-0.2286 -0.3937,0 -0.694266,0.2032 -0.300567,0.198966 -0.499533,0.588433 -0.194734,0.389467 -0.270934,0.948267 -0.0635,0.499533 0.0085,0.893233 0.0762,0.389467 0.3175,0.618067 0.2413,0.2286 0.6731,0.2286 z"
           style="font-style:italic;font-variant:normal;font-weight:300;font-stretch:normal;font-size:8.46666622px;font-family:'Public Sans Thin';-inkscape-font-specification:'Public Sans Thin, Light Italic';font-variant-ligatures:normal;font-variant-caps:normal;font-variant-numeric:normal;font-feature-settings:normal;text-align:start;writing-mode:lr-tb;text-anchor:start;stroke-width:0.26458332"
           id="path895" />
      </g>
      <g
         aria-label="g"
         style="font-style:normal;font-weight:normal;font-size:10.58333302px;line-height:1.25;font-family:sans-serif;letter-spacing:0px;word-spacing:0px;fill:#000000;fill-opacity:1;stroke:none;stroke-width:0.26458332"
         id="text845">
        <path
           d="m 55.937247,66.697747 q -0.9525,0 -1.452034,-0.309034 -0.499533,-0.3048 -0.423333,-0.889 0.02963,-0.232833 0.1524,-0.397933 0.122767,-0.169333 0.2794,-0.283633 0.156633,-0.1143 0.287867,-0.182034 0.131233,-0.07197 0.182033,-0.105833 -0.0635,-0.04233 -0.1524,-0.105833 -0.08467,-0.0635 -0.143933,-0.1651 -0.05927,-0.105834 -0.0381,-0.270934 0.0254,-0.186266 0.220133,-0.347133 0.194733,-0.160867 0.563033,-0.254 -0.321733,-0.1905 -0.486833,-0.508 -0.160867,-0.321733 -0.110067,-0.7112 0.05503,-0.4064 0.2921,-0.715433 0.2413,-0.309034 0.651934,-0.478367 0.410633,-0.169333 0.982133,-0.169333 0.410633,0 0.668867,0.1016 0.262466,0.1016 0.465666,0.287866 0.06773,-0.02963 0.211667,-0.0889 0.148167,-0.05927 0.321733,-0.131233 0.173567,-0.07197 0.325967,-0.135467 0.1524,-0.0635 0.2286,-0.09737 l -0.08043,0.664633 -0.753533,0.1651 q 0.110067,0.309033 0.06773,0.643467 -0.0508,0.381 -0.275167,0.6858 -0.224367,0.3048 -0.618067,0.4826 -0.3937,0.173566 -0.956733,0.173566 -0.0508,0 -0.1143,0 -0.05927,-0.0042 -0.09737,-0.0042 -0.478366,0.0085 -0.668866,0.1016 -0.1905,0.09313 -0.207434,0.207433 -0.0042,0.131234 0.160867,0.1905 0.169333,0.05503 0.588433,0.0889 0.1651,0.0127 0.3937,0.0254 0.232834,0.0127 0.503767,0.03387 0.626533,0.0381 0.9398,0.347133 0.313267,0.3048 0.2413,0.8382 -0.08043,0.5842 -0.613833,0.948267 -0.5334,0.364067 -1.5367,0.364067 z m 0.1397,-0.452967 q 0.601133,0 0.960966,-0.207433 0.359834,-0.2032 0.410634,-0.613834 0.0381,-0.270933 -0.131234,-0.4445 -0.1651,-0.173566 -0.554566,-0.198966 l -1.198034,-0.08043 q -0.148166,-0.0127 -0.338666,0.0889 -0.1905,0.09737 -0.3429,0.275167 -0.148167,0.173567 -0.182034,0.402167 -0.04657,0.359833 0.287867,0.567266 0.334433,0.211667 1.087967,0.211667 z m 0.313266,-3.1369 q 0.4826,0 0.808567,-0.232833 0.325967,-0.237067 0.385233,-0.702734 0.0635,-0.461433 -0.1905,-0.694266 -0.254,-0.237067 -0.719666,-0.237067 -0.486834,0 -0.821267,0.249767 -0.334433,0.249766 -0.397933,0.728133 -0.05927,0.427567 0.182033,0.6604 0.245533,0.2286 0.753533,0.2286 z"
           style="font-style:italic;font-variant:normal;font-weight:300;font-stretch:normal;font-size:8.46666622px;font-family:'Public Sans Thin';-inkscape-font-specification:'Public Sans Thin, Light Italic';font-variant-ligatures:normal;font-variant-caps:normal;font-variant-numeric:normal;font-feature-settings:normal;text-align:start;writing-mode:lr-tb;text-anchor:start;stroke-width:0.26458332"
           id="path898" />
      </g>
    </g>
  </g>
</svg>
