<?xml version="1.0" encoding="UTF-8" standalone="no"?>
<!-- Created with Inkscape (http://www.inkscape.org/) -->

<svg
   xmlns:dc="http://purl.org/dc/elements/1.1/"
   xmlns:cc="http://creativecommons.org/ns#"
   xmlns:rdf="http://www.w3.org/1999/02/22-rdf-syntax-ns#"
   xmlns:svg="http://www.w3.org/2000/svg"
   xmlns="http://www.w3.org/2000/svg"
   xmlns:sodipodi="http://sodipodi.sourceforge.net/DTD/sodipodi-0.dtd"
   xmlns:inkscape="http://www.inkscape.org/namespaces/inkscape"
   width="23.059668mm"
   height="28.516699mm"
   viewBox="0 0 23.059668 28.516699"
   version="1.1"
   id="svg8"
   inkscape:version="0.92.5 (2060ec1f9f, 2020-04-08)"
   sodipodi:docname="mark.svg">
  <defs
     id="defs2" />
  <sodipodi:namedview
     id="base"
     pagecolor="#ffffff"
     bordercolor="#666666"
     borderopacity="1.0"
     inkscape:pageopacity="0.0"
     inkscape:pageshadow="2"
     inkscape:zoom="1.979899"
     inkscape:cx="-123.56559"
     inkscape:cy="32.245956"
     inkscape:document-units="mm"
     inkscape:current-layer="layer1"
     showgrid="false"
     fit-margin-top="5"
     fit-margin-left="5"
     fit-margin-right="5"
     fit-margin-bottom="5"
     inkscape:window-width="1935"
     inkscape:window-height="2092"
     inkscape:window-x="1920"
     inkscape:window-y="27"
     inkscape:window-maximized="0" />
  <metadata
     id="metadata5">
    <rdf:RDF>
      <cc:Work
         rdf:about="">
        <dc:format>image/svg+xml</dc:format>
        <dc:type
           rdf:resource="http://purl.org/dc/dcmitype/StillImage" />
        <dc:title />
      </cc:Work>
    </rdf:RDF>
  </metadata>
  <g
     inkscape:label="Layer 1"
     inkscape:groupmode="layer"
     id="layer1"
     transform="translate(-40.9543,-41.956306)">
    <g
       style="font-style:normal;font-weight:normal;font-size:40px;line-height:1.25;font-family:sans-serif;letter-spacing:0px;word-spacing:0px;fill:#000000;fill-opacity:1;stroke:none"
       id="flowRoot815" />
    <g
       aria-label="fs"
       style="font-style:normal;font-weight:normal;font-size:10.58333302px;line-height:1.25;font-family:sans-serif;letter-spacing:0px;word-spacing:0px;fill:#000000;fill-opacity:1;stroke:none;stroke-width:0.26458332"
       id="text825">
      <path
         d="m 48.719077,62.187649 h 2.054578 V 61.87156 h -0.770467 v -9.146823 h 1.501423 v -0.316088 h -1.501423 v -2.113845 c 0,-1.2446 0.237067,-1.639711 0.829734,-1.639711 0.908755,0 0.948267,1.323622 0.948267,2.034822 0,0.118533 0.05927,0.217311 0.197555,0.217311 0.158045,0 0.217311,-0.118533 0.217311,-0.217311 0,-0.5334 -0.03951,-2.350911 -1.363133,-2.350911 -0.809978,0 -1.343378,0.632178 -1.343378,1.9558 v 2.113845 h -0.889 v 0.316088 h 0.889 v 9.146823 h -0.770467 z"
         style="font-style:normal;font-variant:normal;font-weight:100;font-stretch:normal;font-size:19.75555611px;font-family:Emberly;-inkscape-font-specification:'Emberly, Thin';font-variant-ligatures:normal;font-variant-caps:normal;font-variant-numeric:normal;font-feature-settings:normal;text-align:start;writing-mode:lr-tb;text-anchor:start;stroke-width:0.26458332"
         id="path828" />
      <path
         d="m 52.314533,60.172582 h -0.316089 v 2.015067 h 0.316089 c 0,-0.118534 0.01976,-0.335845 0.158044,-0.395111 0.335844,0.296333 0.809978,0.454377 1.264356,0.454377 1.303866,0 2.528711,-1.323622 1.619955,-2.963333 -0.474133,-0.869244 -1.758244,-3.180645 -2.548467,-4.543778 -0.869244,-1.521178 0,-2.094089 0.948267,-2.094089 0.612422,0 1.264356,0.237067 1.264356,1.205089 v 0.3556 h 0.316089 v -1.797755 h -0.316089 c 0,0.197555 -0.05927,0.296333 -0.158045,0.335844 -0.296333,-0.276578 -0.730955,-0.414867 -1.145822,-0.414867 -1.047044,0 -2.291645,0.849489 -1.402644,2.410178 0.790222,1.402645 2.094088,3.7338 2.548466,4.543778 0.889,1.6002 -0.03951,2.647245 -1.185333,2.647245 -0.592667,0 -1.363133,-0.276578 -1.363133,-1.185334 z"
         style="font-style:normal;font-variant:normal;font-weight:100;font-stretch:normal;font-size:19.75555611px;font-family:Emberly;-inkscape-font-specification:'Emberly, Thin';font-variant-ligatures:normal;font-variant-caps:normal;font-variant-numeric:normal;font-feature-settings:normal;text-align:start;writing-mode:lr-tb;text-anchor:start;stroke-width:0.26458332"
         id="path830" />
    </g>
  </g>
</svg>
