<?xml version="1.0" encoding="UTF-8" standalone="no"?>
<!-- Created with Inkscape (http://www.inkscape.org/) -->

<svg
   xmlns:dc="http://purl.org/dc/elements/1.1/"
   xmlns:cc="http://creativecommons.org/ns#"
   xmlns:rdf="http://www.w3.org/1999/02/22-rdf-syntax-ns#"
   xmlns:svg="http://www.w3.org/2000/svg"
   xmlns="http://www.w3.org/2000/svg"
   xmlns:sodipodi="http://sodipodi.sourceforge.net/DTD/sodipodi-0.dtd"
   xmlns:inkscape="http://www.inkscape.org/namespaces/inkscape"
   width="35.996094"
   height="39.746094"
   viewBox="0 0 9.5239667 10.516155"
   version="1.1"
   id="svg8"
   sodipodi:docname="mark7.svg"
   inkscape:version="0.92.5 (2060ec1f9f, 2020-04-08)">
  <defs
     id="defs2" />
  <sodipodi:namedview
     id="base"
     pagecolor="#ffffff"
     bordercolor="#666666"
     borderopacity="1.0"
     inkscape:pageopacity="0.0"
     inkscape:pageshadow="2"
     inkscape:zoom="11.2"
     inkscape:cx="35.342237"
     inkscape:cy="-16.002031"
     inkscape:document-units="mm"
     inkscape:current-layer="layer1"
     showgrid="false"
     fit-margin-top="5"
     fit-margin-left="5"
     fit-margin-right="5"
     fit-margin-bottom="5"
     inkscape:window-width="1935"
     inkscape:window-height="2092"
     inkscape:window-x="1920"
     inkscape:window-y="27"
     inkscape:window-maximized="0"
     units="px" />
  <metadata
     id="metadata5">
    <rdf:RDF>
      <cc:Work
         rdf:about="">
        <dc:format>image/svg+xml</dc:format>
        <dc:type
           rdf:resource="http://purl.org/dc/dcmitype/StillImage" />
        <dc:title></dc:title>
      </cc:Work>
    </rdf:RDF>
  </metadata>
  <g
     inkscape:label="Layer 1"
     inkscape:groupmode="layer"
     id="layer1"
     transform="translate(-40.390717,-38.239181)">
    <g
       id="g892">
      <g
         id="text823"
         style="font-style:normal;font-weight:normal;font-size:10.58333302px;line-height:1.25;font-family:sans-serif;letter-spacing:0px;word-spacing:0px;fill:#000000;fill-opacity:1;stroke:none;stroke-width:0.26458332"
         aria-label="Ω">
        <path
           inkscape:connector-curvature="0"
           id="path825"
           style="font-style:normal;font-variant:normal;font-weight:300;font-stretch:normal;font-size:10.58333302px;font-family:Emberly;-inkscape-font-specification:'Emberly, Light';font-variant-ligatures:normal;font-variant-caps:normal;font-variant-numeric:normal;font-feature-settings:normal;text-align:start;writing-mode:lr-tb;text-anchor:start;stroke-width:0.26458332"
           d="m 41.868664,43.225957 q 0,-1.601969 0.914673,-2.635498 0.914672,-1.028361 2.36678,-1.028361 1.44694,0 2.366781,1.028361 0.914672,1.028361 0.914672,2.635498 0,1.16272 -0.470255,2.046387 -0.465088,0.883667 -1.524455,1.725993 h 2.154907 v 0.434082 h -2.992065 v -0.413412 q 1.080037,-0.583943 1.679484,-1.576131 0.604614,-0.992187 0.604614,-2.201416 0,-1.483113 -0.754476,-2.377116 -0.749308,-0.894002 -1.979207,-0.894002 -1.229899,0 -1.984375,0.894002 -0.754476,0.89917 -0.754476,2.377116 0,1.183391 0.604615,2.201416 0.589111,0.992188 1.720825,1.576131 v 0.413412 h -3.023072 v -0.434082 h 2.185913 Q 42.81951,46.192184 42.333752,45.272344 41.868664,44.388677 41.868664,43.225957 Z" />
      </g>
      <g
         id="text880"
         style="font-style:normal;font-weight:normal;font-size:10.58333302px;line-height:1.25;font-family:sans-serif;letter-spacing:0px;word-spacing:0px;fill:#000000;fill-opacity:1;stroke:none;stroke-width:0.26458332"
         aria-label="fs">
        <path
           id="path882"
           style="font-style:italic;font-variant:normal;font-weight:100;font-stretch:normal;font-size:5.64444447px;font-family:Emberly;-inkscape-font-specification:'Emberly, Thin Italic';font-variant-ligatures:normal;font-variant-caps:normal;font-variant-numeric:normal;font-feature-settings:normal;text-align:start;writing-mode:lr-tb;text-anchor:start;stroke-width:0.26458332"
           d="m 44.295072,42.106518 h 0.248355 l -0.790222,3.651956 h 0.141111 l 0.790222,-3.651956 h 0.440267 l 0.02258,-0.09031 h -0.440267 l 0.129822,-0.603955 c 0.07902,-0.3556 0.169334,-0.468489 0.338667,-0.468489 0.316089,0 0.174978,0.428978 0.146756,0.581378 -0.0056,0.03387 0.0056,0.06209 0.0508,0.06209 0.03951,0 0.06209,-0.03387 0.06773,-0.06209 0.03387,-0.1524 0.141111,-0.671689 -0.242711,-0.671689 -0.225778,0 -0.423334,0.180622 -0.502356,0.5588 l -0.129822,0.603955 h -0.248356 z" />
        <path
           id="path884"
           style="font-style:italic;font-variant:normal;font-weight:100;font-stretch:normal;font-size:5.64444447px;font-family:Emberly;-inkscape-font-specification:'Emberly, Thin Italic';font-variant-ligatures:normal;font-variant-caps:normal;font-variant-numeric:normal;font-feature-settings:normal;text-align:start;writing-mode:lr-tb;text-anchor:start;stroke-width:0.26458332"
           d="m 46.507688,42.749985 c 0.05644,0.01129 0.112889,-0.05644 0.112889,-0.225778 0,-0.338666 -0.254,-0.530577 -0.502356,-0.530577 -0.282222,0 -0.795867,0.242711 -0.502355,0.936977 0.06209,0.1524 0.361244,0.795867 0.4064,0.897467 0.248355,0.570089 -0.186267,0.9144 -0.485423,0.9144 -0.197555,0 -0.389466,-0.146756 -0.389466,-0.389467 0,-0.0508 0.04516,-0.265289 -0.02258,-0.270933 -0.05645,-0.0056 -0.107245,0.05644 -0.107245,0.231422 0,0.344311 0.276578,0.519289 0.519289,0.519289 0.366889,0 0.874889,-0.4064 0.603956,-1.027289 -0.02822,-0.07338 -0.321733,-0.733778 -0.349956,-0.801511 -0.09596,-0.208844 -0.129822,-0.344311 -0.129822,-0.468489 0,-0.349955 0.265289,-0.451555 0.4572,-0.451555 0.191911,0 0.372533,0.107244 0.372533,0.395111 0,0.141111 -0.0508,0.254 0.01693,0.270933 z" />
      </g>
    </g>
  </g>
</svg>
