<?xml version="1.0" encoding="UTF-8" standalone="no"?>
<!-- Created with Inkscape (http://www.inkscape.org/) -->

<svg
   xmlns:dc="http://purl.org/dc/elements/1.1/"
   xmlns:cc="http://creativecommons.org/ns#"
   xmlns:rdf="http://www.w3.org/1999/02/22-rdf-syntax-ns#"
   xmlns:svg="http://www.w3.org/2000/svg"
   xmlns="http://www.w3.org/2000/svg"
   xmlns:sodipodi="http://sodipodi.sourceforge.net/DTD/sodipodi-0.dtd"
   xmlns:inkscape="http://www.inkscape.org/namespaces/inkscape"
   id="svg2"
   version="1.1"
   inkscape:version="0.48.2 r9819"
   width="211"
   height="289"
   sodipodi:docname="unidentified_cartoon.svg"
   inkscape:export-filename="\\cantonpl.org\cplshared\users\czerniakb\Desktop\t-shirt.png"
   inkscape:export-xdpi="1128.24"
   inkscape:export-ydpi="1128.24">
  <metadata
     id="metadata8">
    <rdf:RDF>
      <cc:Work
         rdf:about="">
        <dc:format>image/svg+xml</dc:format>
        <dc:type
           rdf:resource="http://purl.org/dc/dcmitype/StillImage" />
        <dc:title></dc:title>
      </cc:Work>
    </rdf:RDF>
  </metadata>
  <defs
     id="defs6" />
  <sodipodi:namedview
     pagecolor="#ffffff"
     bordercolor="#666666"
     borderopacity="1"
     objecttolerance="10"
     gridtolerance="10"
     guidetolerance="10"
     inkscape:pageopacity="0"
     inkscape:pageshadow="2"
     inkscape:window-width="1280"
     inkscape:window-height="1002"
     id="namedview4"
     showgrid="false"
     inkscape:zoom="2.309719"
     inkscape:cx="116.18252"
     inkscape:cy="122.74941"
     inkscape:window-x="-8"
     inkscape:window-y="-8"
     inkscape:window-maximized="1"
     inkscape:current-layer="svg2" />
  <rect
     style="fill:#ffffff;fill-opacity:1;stroke:none"
     id="rect3871"
     width="28.141951"
     height="61.912292"
     x="90.487198"
     y="195.48213" />
  <path
     sodipodi:type="arc"
     style="fill:#000000;fill-opacity:1;stroke:none;opacity:0.60032527"
     id="path3968"
     sodipodi:cx="139.84386"
     sodipodi:cy="135.30165"
     sodipodi:rx="19.915842"
     sodipodi:ry="29.440811"
     d="m 159.7597,135.30165 a 19.915842,29.440811 0 1 1 -39.83169,0 19.915842,29.440811 0 1 1 39.83169,0 z"
     transform="matrix(0.57608695,0,0,0.38235295,54.735629,193.1058)" />
  <path
     sodipodi:type="arc"
     style="opacity:0.63821136;fill:#000000;fill-opacity:1;stroke:none"
     id="path3966"
     sodipodi:cx="116.24791"
     sodipodi:cy="104.12903"
     sodipodi:rx="10.607351"
     sodipodi:ry="11.256781"
     d="m 126.85526,104.12903 a 10.607351,11.256781 0 1 1 -21.2147,0 10.607351,11.256781 0 1 1 21.2147,0 z"
     transform="matrix(1.2857143,0,0,1.5192308,-23.68872,22.349228)" />
  <path
     sodipodi:type="arc"
     style="opacity:0.63821136;fill:#000000;fill-opacity:1;stroke:none"
     id="path3970"
     sodipodi:cx="58.448669"
     sodipodi:cy="133.35336"
     sodipodi:rx="8.6590624"
     sodipodi:ry="9.7414446"
     d="m 67.107732,133.35336 a 8.6590624,9.7414446 0 1 1 -17.318125,0 8.6590624,9.7414446 0 1 1 17.318125,0 z"
     transform="translate(25.544232,54.552091)" />
  <path
     style="fill:#b22234;fill-opacity:1;stroke:#000000;stroke-width:1px;stroke-linecap:butt;stroke-linejoin:miter;stroke-opacity:1"
     d="m 79.230417,188.12193 -3.030671,5.62839 -12.55564,0.43295 -1.731813,64.94297 83.126997,3.03067 -11.25678,-17.75108 10.39087,-38.96578 -24.24537,-14.28745 -9.09202,4.32953 -9.09201,21.2147 -6.494298,-21.64765 z"
     id="path3792"
     inkscape:connector-curvature="0" />
  <path
     style="fill:none;stroke:#000000;stroke-width:1.29999995;stroke-linecap:butt;stroke-linejoin:miter;stroke-miterlimit:4;stroke-opacity:1;stroke-dasharray:none"
     d="m 89.621292,192.45146 -6.061344,6.4943 19.049932,18.61698 18.18403,-16.01927 -6.06134,-8.2261"
     id="path3796"
     inkscape:connector-curvature="0" />
  <path
     style="fill:none;stroke:#000000;stroke-width:1px;stroke-linecap:butt;stroke-linejoin:miter;stroke-opacity:1"
     d="m 94.816729,194.61622 7.360201,21.64766 -0.43295,44.16122"
     id="path3798"
     inkscape:connector-curvature="0"
     sodipodi:nodetypes="ccc" />
  <path
     style="fill:none;stroke:#000000;stroke-width:1px;stroke-linecap:butt;stroke-linejoin:miter;stroke-opacity:1"
     d="m 110.40304,195.04918 -8.22611,19.91584"
     id="path3800"
     inkscape:connector-curvature="0" />
  <path
     style="fill:#ffffff;fill-opacity:1;stroke:#000000;stroke-width:1px;stroke-linecap:butt;stroke-linejoin:miter;stroke-opacity:1"
     d="m 102.06869,225.03118 c -4.583017,0.42813 -8.964406,6.75086 0,9.84968 z"
     id="path3802"
     inkscape:connector-curvature="0"
     sodipodi:nodetypes="ccc" />
  <path
     style="fill:#ffffff;fill-opacity:1;stroke:#000000;stroke-width:1px;stroke-linecap:butt;stroke-linejoin:miter;stroke-opacity:1"
     d="m 101.59894,245.87767 c -4.583011,0.42813 -8.964403,6.75086 0,9.84968 z"
     id="path3802-7"
     inkscape:connector-curvature="0"
     sodipodi:nodetypes="ccc" />
  <g
     id="g3882"
     style="stroke-width:2;stroke-miterlimit:4;stroke-dasharray:none">
    <path
       sodipodi:nodetypes="cccccccccc"
       inkscape:connector-curvature="0"
       id="path3880"
       d="m 116.33475,220.27066 c -3.79422,5.91878 -3.6968,11.83757 2.29608,17.75635 3.24391,3.17252 5.83205,7.28186 11.78655,6.5821 4.80732,-4.00249 3.78065,-6.83819 4.8983,-10.10275 l -1.98994,10.40889 c 3.36759,4.94905 6.73517,5.76001 10.10276,7.19439 7.63589,0.2859 11.54302,-3.68964 16.53178,-6.42903 2.98809,-2.86293 5.22653,-5.91326 6.5821,-9.18432 l -1.83687,-15.61335 z"
       style="fill:#c78e58;stroke:#000000;stroke-width:2;stroke-linecap:butt;stroke-linejoin:miter;stroke-opacity:1;fill-opacity:1;stroke-miterlimit:4;stroke-dasharray:none" />
    <path
       sodipodi:nodetypes="cccsccscccccc"
       inkscape:connector-curvature="0"
       id="path3874"
       d="m 132.50992,208.8294 c 7.80817,-2.9314 12.88595,-3.18224 18.38512,0.81337 4.68669,-1.88829 9.37339,-3.52738 14.06009,0.99272 4.40577,-1.80739 9.50757,-2.49467 11.93434,0.99272 2.44566,3.51453 1.79535,8.52349 0.66481,12.70871 -1.86727,18.5658 -16.91684,26.04472 -14.59359,-0.86591 -1.16192,12.65917 -2.52894,17.47082 -6.20716,17.2601 -5.06452,-0.29014 -9.09429,-5.25243 -6.95176,-17.97293 -0.4669,14.16934 -5.2964,17.92518 -12.65594,17.90379 -6.31183,-1.9884 -8.68394,-9.85276 -3.3108,-20.9082 -8.03552,14.9868 -12.94855,8.11617 -18.23655,3.87031 -4.30642,-4.00568 -5.46116,-9.66225 -1.20939,-18.15079 4.98017,-2.23831 10.70042,-2.13302 18.12083,3.35611 z"
       style="fill:#c78e58;fill-opacity:1;stroke:#000000;stroke-width:2;stroke-linecap:butt;stroke-linejoin:miter;stroke-miterlimit:4;stroke-opacity:1;stroke-dasharray:none" />
    <path
       sodipodi:nodetypes="cccc"
       inkscape:connector-curvature="0"
       id="path3876"
       d="m 116.33475,210.93326 c 1.75001,2.3959 5.54161,3.10634 7.6536,3.06144 1.97378,-1.08701 0.11751,-3.0461 -3.21451,-5.35752 -1.77974,0.26528 -3.8234,0.0907 -4.43909,2.29608 z"
       style="fill:none;stroke:#000000;stroke-width:2;stroke-linecap:butt;stroke-linejoin:miter;stroke-miterlimit:4;stroke-opacity:1;stroke-dasharray:none" />
    <path
       sodipodi:nodetypes="cc"
       inkscape:connector-curvature="0"
       id="path3878"
       d="m 121.07998,227.31197 c 11.29258,-5.96981 6.21475,-13.92955 6.88824,-13.92955"
       style="fill:none;stroke:#000000;stroke-width:2;stroke-linecap:butt;stroke-linejoin:miter;stroke-opacity:1;stroke-miterlimit:4;stroke-dasharray:none" />
  </g>
  <path
     style="fill:#ffdc75;fill-opacity:1;stroke:none"
     d="m 134.64841,151.32092 c -5.32628,7.466 -7.78504,14.12859 -4.32952,15.15335 1.09393,0.32442 7.86285,0.21856 13.81929,-1.47931 5.99756,-1.7096 1.11351,7.13226 8.69427,-1.1184 9.1561,-9.96521 15.25344,-24.97967 9.52496,-23.37946 -21.09459,5.8926 -19.99579,0.012 -27.709,10.82382 z"
     id="path3863"
     inkscape:connector-curvature="0"
     sodipodi:nodetypes="ssssss" />
  <path
     style="fill:#c78e58;fill-opacity:1;stroke:#000000;stroke-width:2;stroke-linecap:butt;stroke-linejoin:miter;stroke-miterlimit:4;stroke-opacity:1;stroke-dasharray:none"
     d="m 69.705448,117.98353 c 0,0 -4.650694,22.06848 3.896578,33.33739 3.319388,4.37635 -14.881678,10.3276 4.329531,36.80101 7.374281,10.16189 37.251443,10.30939 43.295313,1.29885 3.10849,-4.63429 19.49749,12.47813 26.84309,-11.68973 6.43266,-21.16419 -16.17023,-6.34795 -18.18403,-12.98858 -2.64284,-8.71493 11.25678,-19.91585 11.25678,-19.91585 -10.97939,2.41075 -23.74855,1.34427 -33.82578,-2.89901 -6.81504,-2.86964 -11.929023,-8.13198 -16.223239,-11.15915 -6.846517,-4.82639 -15.082707,-7.0403 -21.388243,-12.78493 z"
     id="path3835"
     inkscape:connector-curvature="0"
     sodipodi:nodetypes="cssssscssc" />
  <path
     style="fill:#ffffff;fill-opacity:1;stroke:#000000;stroke-width:1.60000002;stroke-linecap:butt;stroke-linejoin:miter;stroke-miterlimit:4;stroke-opacity:1;stroke-dasharray:none"
     d="m 87.110357,159.61657 c 3.623271,-0.0428 5.526676,-5.51076 5.927931,-9.112 0.593638,-5.32801 -0.230233,-14.8952 -5.587995,-15.08096 -5.43801,-0.18855 -7.196987,9.45708 -6.718226,14.87725 0.331136,3.74875 2.615204,9.3601 6.37829,9.31571 z"
     id="path3837-4"
     inkscape:connector-curvature="0"
     sodipodi:nodetypes="aaaaa" />
  <path
     style="fill:#4b4a89;fill-opacity:1;stroke:none"
     d="m 91.04696,139.42558 c -2.196688,1.95545 -3.609674,5.38038 -4.583149,8.35517 l 3.590434,1.80835 -3.463625,1.29886 c -0.422851,2.88635 -1.364487,5.00735 -0.35867,7.8937 6.547624,1.3647 7.417007,-14.19346 4.81501,-19.35608 z"
     id="path3004"
     inkscape:connector-curvature="0"
     sodipodi:nodetypes="cccccc" />
  <path
     style="fill:#ffffff;fill-opacity:1;stroke:#000000;stroke-width:1.60000002;stroke-linecap:butt;stroke-linejoin:miter;stroke-miterlimit:4;stroke-opacity:1;stroke-dasharray:none"
     d="m 115.16553,150.02205 c -3.15922,-1.77461 -7.54163,2.00912 -9.68974,4.92726 -3.17811,4.31737 -7.248215,13.01473 -2.70114,15.85449 4.61518,2.88229 10.96132,-4.59158 13.25678,-9.52497 1.5876,-3.41208 2.41523,-9.41369 -0.8659,-11.25678 z"
     id="path3837"
     inkscape:connector-curvature="0"
     sodipodi:nodetypes="aaaaa" />
  <path
     style="fill:none;stroke:#000000;stroke-width:1.29999995;stroke-linecap:butt;stroke-linejoin:miter;stroke-miterlimit:4;stroke-opacity:1;stroke-dasharray:none"
     d="m 138.54499,147.42434 c 12.12269,-1.73181 12.12268,-1.29886 12.12268,-1.29886"
     id="path3865"
     inkscape:connector-curvature="0"
     sodipodi:nodetypes="cc" />
  <path
     style="fill:none;stroke:#000000;stroke-width:2;stroke-linecap:butt;stroke-linejoin:miter;stroke-miterlimit:4;stroke-opacity:1;stroke-dasharray:none"
     d="m 148.06996,168.20609 c 21.94486,-17.52176 15.16507,-27.69143 15.15336,-27.709"
     id="path3859"
     inkscape:connector-curvature="0"
     sodipodi:nodetypes="cc" />
  <path
     style="fill:none;stroke:#000000;stroke-width:1.29999995;stroke-linecap:butt;stroke-linejoin:miter;stroke-miterlimit:4;stroke-opacity:1;stroke-dasharray:none"
     d="m 128.58707,168.20609 c 5.00265,-6.73663 9.90084,-13.99558 16.01926,-15.15336"
     id="path3867"
     inkscape:connector-curvature="0"
     sodipodi:nodetypes="cc" />
  <path
     style="fill:none;stroke:#000000;stroke-width:1px;stroke-linecap:butt;stroke-linejoin:miter;stroke-opacity:1"
     d="m 124.25754,180.76173 c 11.22114,3.51499 8.16125,-2.23868 6.06134,-6.4943 4.70284,-2.06918 8.77359,-1.11633 13.42155,0.43296"
     id="path3869"
     inkscape:connector-curvature="0"
     sodipodi:nodetypes="ccc" />
  <path
     style="fill:#4c4a88;fill-opacity:1;stroke:none"
     d="m 116.5661,154.79375 c -2.81727,0.84387 -5.90568,2.47987 -8.04515,4.76454 l 2.4898,3.1563 -3.68804,-0.28662 c -1.60306,2.43722 -2.56645,5.17272 -2.87469,8.21373 5.86788,0.36611 13.06996,-10.6694 12.11808,-15.84795 z"
     id="path3004-1"
     inkscape:connector-curvature="0"
     sodipodi:nodetypes="cccccc" />
  <path
     style="fill:#1e1e36;fill-opacity:1;stroke:#000000;stroke-width:1px;stroke-linecap:butt;stroke-linejoin:miter;stroke-opacity:1"
     d="m 82.261089,168.31432 c 5.704312,7.32756 12.919786,10.25187 22.621791,10.71559 -2.82252,4.02116 -6.26973,6.94653 -11.689726,6.06135 -5.42026,-3.64678 -8.944883,-10.55535 -10.932065,-16.77694 z"
     id="path3822"
     inkscape:connector-curvature="0"
     sodipodi:nodetypes="cccc" />
  <path
     style="fill:none;stroke:#000000;stroke-width:1px;stroke-linecap:butt;stroke-linejoin:miter;stroke-opacity:1"
     d="m 83.992901,166.14956 c -6.061343,5.62839 -5.195436,5.73662 -5.195436,5.73662"
     id="path3824"
     inkscape:connector-curvature="0"
     sodipodi:nodetypes="cc" />
  <path
     style="fill:none;stroke:#000000;stroke-width:1px;stroke-linecap:butt;stroke-linejoin:miter;stroke-opacity:1"
     d="m 107.58885,183.46768 c -1.12488,-3.1488 -2.57134,-6.1904 -5.41192,-8.7673"
     id="path3826"
     inkscape:connector-curvature="0"
     sodipodi:nodetypes="cc" />
  <path
     style="fill:none;stroke:#000000;stroke-width:1.29999995;stroke-linecap:butt;stroke-linejoin:miter;stroke-miterlimit:4;stroke-opacity:1;stroke-dasharray:none"
     d="m 89.946007,167.66489 c 3.211608,-2.53764 5.302579,-1.39318 6.494296,2.70596"
     id="path3828"
     inkscape:connector-curvature="0"
     sodipodi:nodetypes="cc" />
  <path
     style="fill:#b22234;fill-opacity:1;stroke:none"
     d="m 120.62076,31.529029 c -1.06917,16.495835 -6.71904,51.120631 -9.41395,70.987221 -0.25059,1.84733 -11.256961,-0.76317 -10.79155,-4.860102 2.39133,-21.050427 5.51059,-67.351695 5.51059,-67.351695 z"
     id="path3765-1"
     inkscape:connector-curvature="0"
     sodipodi:nodetypes="csscc" />
  <path
     style="fill:#b22234;fill-opacity:1;stroke:none"
     d="m 142.05084,37.651911 c -0.71004,10.954931 -4.21859,37.404014 -6.99169,50.778784 -2.3444,11.307125 -4.48522,14.332685 -5.48369,21.433015 -0.44433,3.15972 -14.46528,-2.41095 -14.46528,-2.41095 0,0 2.08397,-6.09916 4.36189,-19.367496 2.78963,-16.248859 7.27158,-54.71937 7.27158,-54.71937 z"
     id="path3765-7"
     inkscape:connector-curvature="0"
     sodipodi:nodetypes="csscscc" />
  <path
     style="fill:#b22234;stroke:none;stroke-width:1px;stroke-linecap:butt;stroke-linejoin:miter;stroke-opacity:1;fill-opacity:1"
     d="m 100.41525,28.165255 c -1.069173,16.495835 -1.5431,45.562808 -4.515643,66.701207 -0.444328,3.159715 -8.954692,-6.084681 -8.954692,-6.084681 l 2.449152,-62.45339 z"
     id="path3765"
     inkscape:connector-curvature="0"
     sodipodi:nodetypes="csccc" />
  <path
     style="fill:#b22234;fill-opacity:1;stroke:none"
     d="m 159.8072,43.162503 c -0.8293,12.794948 -1.91776,27.393558 -4.30103,45.087439 -0.68935,5.117883 -2.60916,14.422158 -3.27606,19.164618 -0.44432,3.15971 -15.68986,2.48735 -15.68986,2.48735 l 5.44217,-23.828172 4.96673,-45.972675 z"
     id="path3765-0"
     inkscape:connector-curvature="0"
     sodipodi:nodetypes="csscccc" />
  <path
     style="fill:#b22234;fill-opacity:1;stroke:none"
     d="m 170.52098,46.683156 c -1.06917,16.49584 -4.75761,37.449992 -7.73015,58.588394 -0.44433,3.15972 -4.66868,2.18121 -4.66868,2.18121 l 7.34746,-63.06568 z"
     id="path3765-9"
     inkscape:connector-curvature="0"
     sodipodi:nodetypes="csccc" />
  <path
     style="fill:#3c3b6e;fill-opacity:1;stroke:none"
     d="M 122.45763,37.349577 C 100.81552,32.732002 85.675459,27.028634 83.166134,23.953522 c -2.509325,-3.075112 34.488296,0.306702 50.312676,4.211733 15.80708,3.900763 23.56209,9.176952 36.125,16.837924 12.8207,7.818174 -29.86486,-3.966447 -47.14618,-7.653602 z"
     id="path3755"
     inkscape:connector-curvature="0"
     sodipodi:nodetypes="szsss" />
  <path
     style="fill:none;stroke:#3c3b6e;stroke-width:2.09999989999999980;stroke-linecap:butt;stroke-linejoin:miter;stroke-miterlimit:4;stroke-opacity:1;stroke-dasharray:none"
     d="m 75.923728,85.108052 c 0,0 -23.027443,9.790725 3.673729,39.186438 4.42545,4.87204 11.228361,4.56754 15.919492,9.18432 3.678933,3.62063 6.670801,6.91831 11.021191,8.57203 11.66241,4.43325 25.0584,4.59217 37.34958,2.44916 13.59666,-2.37063 30.08878,-5.19583 37.96186,-16.53178 4.31399,-6.21145 4.38652,-15.78482 1.22458,-22.65466 -3.22578,-7.008543 -7.04922,-9.699152 -18.36865,-14.082628"
     id="path3759"
     inkscape:connector-curvature="0"
     sodipodi:nodetypes="cssaaaac" />
  <path
     style="fill:none;stroke:#3c3b6e;stroke-width:2.09999989999999980;stroke-linecap:butt;stroke-linejoin:miter;stroke-miterlimit:4;stroke-opacity:1;stroke-dasharray:none"
     d="m 170.92708,46.5339 c -4.28601,38.574153 -9.22146,66.56644 -9.22146,66.56644"
     id="path3757-4"
     inkscape:connector-curvature="0"
     sodipodi:nodetypes="cc" />
  <path
     style="fill:#3c3b6e;fill-opacity:1;stroke:#000000;stroke-width:1px;stroke-linecap:butt;stroke-linejoin:miter;stroke-opacity:1"
     d="m 72.862288,194.70763 c 5.003197,15.08802 24.638158,63.84487 24.491525,67.96398 -8.007503,7.58036 -22.579995,12.57822 -33.512711,14.08263 C 52.908386,263.56374 49.626416,239.54318 36.900424,210.79025 30.850041,197.1201 31.579342,184.85538 29.226695,170.05296 27.196223,157.2776 18.980932,136.54025 18.980932,136.54025 l -4.286017,-10.40889 16.53178,-8.57204 4.286017,9.79661 c 0,0 11.861381,21.93735 17.756356,32.45127 5.546671,9.89271 11.251558,9.74468 19.59322,34.90043 z"
     id="path2987"
     inkscape:connector-curvature="0"
     sodipodi:nodetypes="sccssccccss" />
  <path
     style="fill:#c78e58;fill-opacity:1;stroke:#000000;stroke-width:2;stroke-linecap:butt;stroke-linejoin:miter;stroke-miterlimit:4;stroke-opacity:1;stroke-dasharray:none"
     d="m 36.038529,208.03777 c -6.420989,10.86889 -10.43176,18.63799 -0.865906,39.72826 16.360162,6.31702 22.712235,4.36548 25.544232,0.53638 4.316603,-6.92321 -7.778014,-8.71791 -21.647655,-9.95792 13.306576,1.3013 23.653593,1.23666 22.080608,-4.32953 1.928347,-6.63064 -8.04826,-8.49929 -23.379467,-8.22611 9.454647,-1.11015 24.81672,1.32417 23.81242,-6.06134 -7.937473,-9.04876 -15.874947,-5.99286 -23.81242,-6.4943 0.577271,-2.4534 -2.309083,-2.74204 -1.731812,-5.19544 z"
     id="path3873"
     inkscape:connector-curvature="0"
     sodipodi:nodetypes="ccccccccc" />
  <path
     style="fill:none;stroke:#3c3b6e;stroke-width:2.09999989999999980;stroke-linecap:butt;stroke-linejoin:miter;stroke-miterlimit:4;stroke-opacity:1;stroke-dasharray:none"
     d="m 83.883474,23.26695 c -1.224576,39.186441 -2.306958,88.50486 -2.306958,88.50486 m 1.082382,-26.626616 c 0,0 -21.387534,-3.329693 -23.266949,10.371756 -2.501165,18.23418 20.675603,29.38983 20.675603,29.38983"
     id="path3757"
     inkscape:connector-curvature="0"
     sodipodi:nodetypes="cccsc" />
  <path
     style="fill:#3c3b6e;fill-opacity:1;stroke:none"
     d="m 82.523582,86.480117 c -0.06565,11.333281 -0.07553,15.453413 0.151703,22.648003 L 85.5625,105.1875 85.15625,99.5 l 3.625,3.15625 3.90625,-2.125 -1.0625,5.5 2.8125,4.34375 -0.6875,0.0312 4.34375,1.15625 3.9375,-3.46875 0.40625,5.28125 4.5625,2.75 -4.90625,1.9375 -1.125,5.15625 -3.40625,-4.09375 -5.25,0.4375 2.78125,-4.46875 -2,-4.625 -2.90625,0.1563 -2.1875,4.8125 -1.5625,-5.3125 -3.839203,-1.04801 c 0.05365,1.41759 -2.02259,0.71113 -1.914766,2.63324 19.20278,21.16865 60.657529,35.11877 81.566469,15.63352 -0.29208,-10.33208 0.705,-8.72402 0.625,-20.1875 -13.71471,13.34282 -64.660461,10.58912 -80.351418,-20.676133 z m 36.101418,27.738633 1.40625,5.59375 5.53125,2.03125 -5,3.03125 -0.25,5.71875 -4.53125,-3.6875 -5.6875,1.5 2.21875,-5.34375 -3.25,-4.8125 5.875,0.4375 z m 32.375,1.1875 3.28125,3.84375 5.25,-0.4375 -2.9375,4.21875 1.9375,4.59375 -5.0625,-1.25 -4.0625,3.28125 -0.21875,-4.96875 -4.4375,-2.59375 4.9375,-1.84375 z m -16.09375,1.125 2.375,5.25 5.78125,1.03125 -4.40625,3.84375 0.75,5.71875 -5.09375,-2.875 -5.375,2.46875 1.28125,-5.625 -4.0625,-4.1875 5.875,-0.59375 z"
     id="path3763"
     inkscape:connector-curvature="0"
     sodipodi:nodetypes="cccccccccccccccccccccccccccccccccccccccccccccccccccccccccccc" />
</svg>
