<?xml version="1.0" encoding="UTF-8" standalone="no"?>
<!-- Created with Inkscape (http://www.inkscape.org/) -->

<svg
   xmlns:dc="http://purl.org/dc/elements/1.1/"
   xmlns:cc="http://creativecommons.org/ns#"
   xmlns:rdf="http://www.w3.org/1999/02/22-rdf-syntax-ns#"
   xmlns:svg="http://www.w3.org/2000/svg"
   xmlns="http://www.w3.org/2000/svg"
   xmlns:sodipodi="http://sodipodi.sourceforge.net/DTD/sodipodi-0.dtd"
   xmlns:inkscape="http://www.inkscape.org/namespaces/inkscape"
   version="1.2"
   width="512"
   height="512"
   id="svg2"
   sodipodi:docname="logo-mark.svg"
   inkscape:version="0.92.5 (2060ec1f9f, 2020-04-08)">
  <sodipodi:namedview
     pagecolor="#ffffff"
     bordercolor="#666666"
     borderopacity="1"
     objecttolerance="10"
     gridtolerance="10"
     guidetolerance="10"
     inkscape:pageopacity="0"
     inkscape:pageshadow="2"
     inkscape:window-width="1633"
     inkscape:window-height="1448"
     id="namedview15"
     showgrid="false"
     inkscape:zoom="7.8476375"
     inkscape:cx="64.712185"
     inkscape:cy="10.400978"
     inkscape:window-x="3132"
     inkscape:window-y="269"
     inkscape:window-maximized="0"
     inkscape:current-layer="svg2"
     fit-margin-left="5"
     fit-margin-right="5"
     fit-margin-bottom="5"
     fit-margin-top="5" />
  <defs
     id="defs4" />
  <metadata
     id="metadata7">
    <rdf:RDF>
      <cc:Work
         rdf:about="">
        <dc:format>image/svg+xml</dc:format>
        <dc:type
           rdf:resource="http://purl.org/dc/dcmitype/StillImage" />
        <dc:title></dc:title>
      </cc:Work>
    </rdf:RDF>
  </metadata>
  <g
     transform="matrix(25.1,0,0,25.1,-45.2,-45.2)"
     id="g6"
     style="fill:#0081a7;fill-opacity:0.94117647;stroke:none;stroke-opacity:1">
    <path
       inkscape:connector-curvature="0"
       id="path2"
       d="M 21,2 H 3 C 2.448,2 2,2.447 2,3 v 18 c 0,0.553 0.448,1 1,1 h 18 c 0.552,0 1,-0.447 1,-1 V 3 C 22,2.447 21.552,2 21,2 Z M 20,20 H 4 V 4 h 16 z"
       style="fill:#0081a7;fill-opacity:0.94117647;stroke:none;stroke-opacity:1" />
    <path
       inkscape:connector-curvature="0"
       id="path4"
       d="m 8.868,13.018 -0.985,3.029 c -0.134,0.412 0.013,0.864 0.363,1.118 0.351,0.256 0.825,0.257 1.176,0 L 12,15.293 l 2.578,1.872 c 0.175,0.128 0.382,0.191 0.588,0.191 0.206,0 0.413,-0.063 0.588,-0.191 0.351,-0.254 0.497,-0.706 0.363,-1.118 l -0.985,-3.029 2.578,-1.873 c 0.351,-0.254 0.497,-0.706 0.363,-1.117 C 17.939,9.616 17.555,9.337 17.122,9.337 H 13.936 L 12.952,6.308 C 12.817,5.895 12.433,5.615 12,5.615 c -0.433,0 -0.817,0.279 -0.951,0.691 L 10.065,9.335 H 6.878 c -0.433,0 -0.817,0.279 -0.951,0.691 -0.134,0.411 0.013,0.863 0.363,1.117 z m 1.923,-1.682 c 0.433,0 0.817,-0.279 0.951,-0.691 L 12,9.852 l 0.258,0.793 c 0.134,0.412 0.518,0.691 0.951,0.691 h 0.835 l -0.676,0.491 c -0.351,0.254 -0.497,0.706 -0.363,1.118 l 0.258,0.793 -0.675,-0.49 C 12.413,13.12 12.206,13.057 12,13.057 c -0.206,0 -0.413,0.063 -0.588,0.191 l -0.675,0.49 0.258,-0.793 c 0.134,-0.412 -0.013,-0.864 -0.363,-1.118 L 9.956,11.336 Z"
       style="fill:#0081a7;fill-opacity:0.94117647;stroke:none;stroke-opacity:1" />
  </g>
</svg>
