<?xml version="1.0" encoding="UTF-8" standalone="no"?>
<!-- Created with Inkscape (http://www.inkscape.org/) -->

<svg
   xmlns:dc="http://purl.org/dc/elements/1.1/"
   xmlns:cc="http://creativecommons.org/ns#"
   xmlns:rdf="http://www.w3.org/1999/02/22-rdf-syntax-ns#"
   xmlns:svg="http://www.w3.org/2000/svg"
   xmlns="http://www.w3.org/2000/svg"
   version="1.2"
   width="65.943413"
   height="49.5625"
   id="svg2">
  <defs
     id="defs4" />
  <metadata
     id="metadata7">
    <rdf:RDF>
      <cc:Work
         rdf:about="">
        <dc:format>image/svg+xml</dc:format>
        <dc:type
           rdf:resource="http://purl.org/dc/dcmitype/StillImage" />
        <dc:title></dc:title>
      </cc:Work>
    </rdf:RDF>
  </metadata>
  <g
     transform="translate(-93.78125,-316.4375)"
     id="layer1">
    <flowRoot
       id="flowRoot2985"
       xml:space="preserve"
       style="font-size:36px;font-style:normal;font-variant:normal;font-weight:bold;font-stretch:normal;line-height:125%;letter-spacing:0px;word-spacing:0px;fill:#000000;fill-opacity:1;stroke:none;font-family:Bradley Hand ITC;-inkscape-font-specification:Bradley Hand ITC Bold"><flowRegion
         id="flowRegion2987"><rect
           width="580"
           height="294.28571"
           x="91.428574"
           y="318.07648"
           id="rect2989"
           style="font-size:36px;font-style:normal;font-variant:normal;font-weight:bold;font-stretch:normal;font-family:Bradley Hand ITC;-inkscape-font-specification:Bradley Hand ITC Bold" /></flowRegion><flowPara
         id="flowPara2991"
         style="font-size:36px;font-style:normal;font-variant:normal;font-weight:bold;font-stretch:normal;font-family:Bradley Hand ITC;-inkscape-font-specification:Bradley Hand ITC Bold" /></flowRoot>    <g
       id="text2995"
       style="font-size:36px;font-style:normal;font-variant:normal;font-weight:bold;font-stretch:normal;line-height:125%;letter-spacing:0px;word-spacing:0px;fill:#000000;fill-opacity:1;stroke:none;font-family:Bradley Hand ITC;-inkscape-font-specification:Sans Bold">
      <path
         d="m 107.36327,347.09534 -0.24609,0.3164 0.0703,0.86133 -0.75586,1.05469 0,0.42187 -0.47461,0.54493 0.19336,0.3164 c -0.23438,0.22266 -0.48634,0.59766 -0.75586,1.125 l -0.7207,0.43946 c -0.1172,0.1875 -0.2754,0.29882 -0.47461,0.33398 -0.18751,0.0352 -0.36915,0.0762 -0.54492,0.12305 l -0.0703,0.21093 -0.10547,-0.14062 -0.31641,0.14062 -0.22851,-0.14062 c -0.14064,0 -0.3047,0.0586 -0.49219,0.17578 l 0.0703,0.1582 -0.50976,-0.0703 -0.14063,0.17578 -0.24609,-0.17578 -0.65039,0.35156 -0.33399,-0.35156 -0.720701,0.0703 -0.597657,-0.17578 c -0.433599,-0.11719 -0.738287,-0.29883 -0.914062,-0.54492 l -0.421875,-0.14062 -0.228516,-0.68555 c -0.02344,-0.16406 -0.187504,-0.28711 -0.492187,-0.36914 l -0.333985,0.14062 -0.492187,-0.21093 -0.544922,-1.23047 0.105469,-0.28125 -0.210938,-0.4043 0,-0.66797 -0.140625,-0.29883 0.140625,-0.58008 -0.263672,-0.3164 0.123047,-0.4043 0,-1.14258 0.140625,-0.36914 0.07031,-2.30273 0.140625,-0.89649 -0.140625,-0.14062 0.246093,-0.82617 -0.105468,-0.50977 0,-0.49219 0.175781,-0.26367 c -0.04688,-0.67967 -0.105472,-1.06053 -0.175781,-1.14258 l 0.333984,-1.16015 -0.228516,-1.23047 0.228516,-0.14063 -0.158203,-0.42187 0,-0.65039 -0.07031,-1.08985 0.105469,-0.3164 -0.140625,-0.65039 0.140625,-0.0703 c -0.11719,-0.0586 -0.175784,-0.12889 -0.175781,-0.21094 -3e-6,-0.0351 0.02929,-0.0996 0.08789,-0.19336 0.05859,-0.10545 0.08789,-0.21092 0.08789,-0.31641 l 0,-0.10547 -0.140625,-0.33398 c 0.04687,-0.18748 0.07031,-0.33982 0.07031,-0.45703 -3e-6,-0.25779 -0.09375,-0.52147 -0.28125,-0.79102 -3e-6,-0.17576 0.07031,-0.26365 0.210937,-0.26367 l -0.210937,-0.52734 0.140625,-0.43946 -0.28125,-0.7207 0.386718,-0.0352 -0.03516,-0.3164 0.263672,-0.14063 c 0.09375,0.1055 0.175778,0.31643 0.246094,0.63282 l 0.351562,0.29882 -0.246093,0.21094 0.474609,0.58008 -0.228516,0.31641 -0.246093,0.0703 c 0.187496,0.19924 0.281246,0.31057 0.28125,0.33398 -4e-6,0.0821 -0.04688,0.14065 -0.140625,0.17578 l 0.175781,0.2461 -0.175781,0.1582 0.333984,0.24609 c -0.105473,0.0938 -0.158207,0.21096 -0.158203,0.35157 l 0.333984,0.7207 -0.140625,0.4043 0.140625,0.10547 -0.175781,0.0703 c 0.117183,0.16408 0.175777,0.28713 0.175781,0.36914 -4e-6,0.10549 -0.09961,0.23439 -0.298828,0.38672 l 0.369141,0.0703 c -0.0586,0.29299 -0.09961,0.54494 -0.123047,0.75586 -0.02344,0.21095 -0.117192,0.45119 -0.28125,0.7207 0.175777,0.0703 0.263667,0.28713 0.263672,0.65039 l -0.105469,0.43946 0.105469,0.3164 -0.333985,1.47656 0.333985,0.47461 -0.333985,0.59766 0.105469,0.54492 -0.105469,0.36914 0.228516,0.31641 -0.333984,0.33398 0.105468,0.2461 -0.03516,0.3164 0.03516,0.19336 -0.105468,0.31641 0.175781,0.31641 -0.175781,0.26367 0.175781,0.35156 -0.175781,0.14062 c 0.07031,0.18751 0.105464,0.334 0.105468,0.43946 -4e-6,0.15235 -0.08204,0.29883 -0.246093,0.43945 l 0.210937,0.17578 -0.07031,0.54492 0,1.42383 c 0.199214,0.19923 0.310542,0.29884 0.333984,0.29883 0.164058,10e-6 0.246089,-0.18163 0.246094,-0.54492 l 0,-0.14063 c 0.105464,-0.082 0.228511,-0.22265 0.36914,-0.42187 0.14062,-0.19921 0.210933,-0.31054 0.210938,-0.33399 l 0,-0.24609 0.175781,-0.19336 c 0.03515,-0.46874 0.128901,-0.80272 0.28125,-1.00195 l -0.03516,-0.68555 0.228515,-0.0352 0.03516,-0.21093 0.105468,0.0703 0.105469,-0.50977 0.246094,-0.49218 0,-0.22852 0.228516,-0.42187 -0.05273,-0.33399 0.333985,-0.45703 0.246093,-0.12305 0,-0.24609 c 0.1875,-0.10546 0.29882,-0.29882 0.33399,-0.58008 l 0.38672,-0.45703 0.17578,0.0703 0,-0.17578 0.19336,-0.1582 c 0.0117,-0.21093 0.16405,-0.50975 0.45703,-0.89649 -0.0938,-0.0586 -0.14064,-0.11717 -0.14063,-0.17578 -10e-6,-0.0703 0.0586,-0.11717 0.17578,-0.14062 l 0.0703,-0.17578 c 0.11717,-0.0234 0.33397,-0.14647 0.65039,-0.36914 l 0.19336,-0.54493 0.21093,0 -0.0703,-0.17578 c 0.22265,-0.16404 0.55663,-0.24607 1.00195,-0.24609 l -0.28125,-0.0703 0.35157,-0.19336 0.14062,0 -0.14062,-0.14063 0.21093,-0.0703 -0.0703,-0.10547 0.36914,0 -0.0352,0.10547 0.89648,0.14062 0.19336,0.35157 c 0.0586,0.10548 0.11718,0.42189 0.17578,0.94922 l 0.31641,0.0351 0.0703,0.50977 0.31641,0.28125 0,0.43945 0.12304,0.17578 -0.0352,0.31641 0.42187,0.22851 0.0703,0.68555 0,0.14063 c -1e-5,0.2461 0.14647,0.60352 0.43946,1.07226 -0.082,0.23439 -0.16994,0.38087 -0.26367,0.43945 0.11717,0.14064 0.2285,0.21095 0.33398,0.21094 0.0937,10e-6 0.17577,-0.0234 0.24609,-0.0703 -1e-5,0.28126 -0.10548,0.47462 -0.3164,0.58008 l 0.21093,1.47656 c 0.0703,0.0352 0.10546,0.0938 0.10547,0.17578 l -0.0703,0.31641 -0.0352,1.91601 0.10547,0.31641 -0.10547,0.58008 0.10547,0.47461 m -0.82617,-2.63672 -0.10547,-0.79102 0,-0.61523 -0.28125,-1.86328 -0.33398,-1.33594 -0.49219,-1.23047 -0.84375,-1.38867 c -0.0469,-0.12889 -0.14064,-0.26366 -0.28125,-0.4043 l -0.54492,0.14063 -0.24609,-0.0703 -0.2461,0.33399 -0.47461,0.10547 0,0.45703 c -1e-5,0.0469 -0.0938,0.0879 -0.28125,0.12305 -0.17579,0.0235 -0.31055,0.19923 -0.40429,0.52734 -0.29298,0.25783 -0.48634,0.46876 -0.58008,0.63281 -0.082,0.16408 -0.21095,0.33986 -0.38672,0.52735 l -0.17578,0 -0.22852,0.82617 -0.28125,0.42187 -0.47461,1.16016 c -7e-6,0.36329 -0.07032,0.66212 -0.210937,0.89648 -0.140632,0.23439 -0.298835,0.50978 -0.47461,0.82618 l 0.03516,0.58007 -0.492188,0.72071 -0.298828,1.19531 -0.351562,0.28125 c 0.02343,0.0234 0.03515,0.0469 0.03516,0.0703 -5e-6,0.0469 -0.01172,0.082 -0.03516,0.10547 0.04687,0.11719 0.07031,0.31055 0.07031,0.58008 -5e-6,0.33985 -0.0586,0.62696 -0.175781,0.86133 l -0.263672,0.10547 0.158203,0.58007 -0.298828,0.10547 0.03516,0.36914 -0.105469,0.28125 c -0.210941,0.14063 -0.31641,0.2754 -0.316406,0.4043 -4e-6,0.11719 0.07031,0.17578 0.210938,0.17578 -0.09376,0.0937 -0.14063,0.17578 -0.140625,0.24609 -5e-6,0.0586 0.04687,0.12891 0.140625,0.21094 l 0.755859,-0.3164 0.509766,0.0351 c -6e-6,0.0703 0.02343,0.10547 0.07031,0.10547 l 0.03516,0 c 0.281244,0 0.433588,0.0996 0.457032,0.29883 l 0.07031,-0.19336 0.05273,0.29883 c 0.257805,0.0469 0.433587,0.10547 0.527343,0.17578 l 0,0.47461 c 0.16406,0.0703 0.35742,0.22266 0.58008,0.45703 l 1.23047,0 1.00195,-0.24609 0.0703,-0.21094 0.21094,0.14062 0.29883,-0.22851 c 0.0937,-0.0703 0.35741,-0.16406 0.79102,-0.28125 l -0.0703,-0.21094 0.31641,0 0,-0.17578 0.10547,0 c 0.16405,0 0.2871,-0.14062 0.36914,-0.42188 0.082,-0.29296 0.14061,-0.45702 0.17578,-0.49218 l 1.00195,-1.10743 0,-0.4746 0.4043,-0.82618 0,-1.00195 0.10547,-1.05469 -0.0352,-0.49218 0.10547,-0.4043"
         id="path3000"
         style="font-weight:normal;stroke:#000000;stroke-width:2;stroke-miterlimit:4;stroke-opacity:1;stroke-dasharray:none;-inkscape-font-specification:Bradley Hand ITC" />
      <path
         d="m 123.8164,348.81799 -0.33399,0.47461 0.22852,0.14063 c -0.14064,0.22266 -0.29884,0.4043 -0.47461,0.54492 l -0.0703,0.45703 -0.43946,0.0352 -0.12304,0.26367 c -0.0352,0.0703 -0.23439,0.22266 -0.59766,0.45703 l -0.24609,-0.0703 c -0.14064,0.15234 -0.47462,0.26367 -1.00196,0.33398 l -0.22851,-0.1582 -0.0352,0.29883 -0.82617,-0.4043 c -0.0469,0 -0.17579,0.0879 -0.38672,0.26367 l -0.14062,-0.1582 -1.08985,-0.10547 -0.65039,0.10547 -0.3164,-0.28125 -0.75586,0.10547 -0.36914,-0.31641 c -0.23438,0.11719 -0.42188,0.17578 -0.5625,0.17578 -0.16407,0 -0.34571,-0.0586 -0.54493,-0.17578 -0.11719,0.11719 -0.17578,0.2461 -0.17578,0.38672 0,0.0352 0.0234,0.14649 0.0703,0.33398 0.0469,0.18751 0.0703,0.32813 0.0703,0.42188 -1e-5,0.14062 -0.0586,0.36914 -0.17578,0.68555 l 0.14062,0.47461 -0.29883,0.35156 c 0.082,0.5039 0.12305,0.97265 0.12305,1.40625 l -0.12305,1.00195 0.12305,1.26563 -0.33398,0.47461 0.21093,0.68554 -0.21093,0.82617 0.33398,0.10547 0,0.38672 c -0.17578,0.0352 -0.26368,0.1582 -0.26367,0.36914 -1e-5,0.0469 0.0234,0.16406 0.0703,0.35157 l 0.10547,0.0352 c -0.21094,0.3164 -0.31641,0.54491 -0.31641,0.68555 l -0.0703,2.84765 c -0.0117,0.41015 -0.10547,0.61523 -0.28125,0.61524 -0.0586,-10e-6 -0.22852,-0.0235 -0.50976,-0.0703 l 0.0352,-0.68555 -0.17578,-1.51172 0.28125,-0.58008 0.10547,-1.07226 -0.21094,-1.23047 c 0.1875,-0.12891 0.28125,-0.25782 0.28125,-0.38672 0,-0.0703 -0.0703,-0.33399 -0.21094,-0.79102 l 0.2461,-0.47461 -0.2461,-0.79101 0.2461,-0.61524 -0.10547,-0.65039 0.33398,-0.21093 c -0.33984,-0.082 -0.50977,-0.2754 -0.50976,-0.58008 -1e-5,-0.16407 0.0937,-0.59766 0.28125,-1.30078 l -0.21094,-0.42188 0.14063,-0.58008 -0.14063,-0.14062 0.14063,-0.21094 -0.14063,-1.30078 0.21094,-1.72266 -0.2461,-0.36914 0.50977,-0.24609 -0.26367,-0.0703 -0.21094,-0.36914 -0.21094,-0.10547 0.17578,-0.10547 0.0352,0.10547 0.10547,-0.17578 -0.14063,-0.14063 0.4043,0.0703 -0.1582,-0.22851 0.1582,0.0351 0,-0.17578 c -0.17578,-0.082 -0.26367,-0.16405 -0.26367,-0.24609 0,-0.16406 0.0352,-0.32226 0.10547,-0.47461 l -0.10547,-0.38672 c -0.14063,-0.0352 -0.21094,-0.0996 -0.21094,-0.19336 0,-0.0469 0.0586,-0.0703 0.17578,-0.0703 l 0.0703,0 0,-0.10547 0.22851,0 -0.26367,-0.31641 0.10547,-0.4746 0,-0.42188 0.0352,-0.26367 -0.14062,-0.58008 0.14062,-0.63281 -0.14062,-0.50977 0.14062,-0.65039 -0.14062,-0.24609 0.0352,-0.58008 -0.0352,-0.4043 0.0352,-0.5625 c -0.12891,-0.12889 -0.21095,-0.40428 -0.2461,-0.82617 l -0.3164,0 -0.29883,-0.19336 -0.54492,0.43945 0,-0.10546 -0.2461,0.10546 -0.50976,0 -0.10547,0.21094 -0.42188,0.0352 -0.33398,0.33398 -0.42188,-0.0703 -0.29882,0.52734 -0.45704,-0.21093 -0.10546,0.28125 c -0.48047,-0.26952 -0.72071,-0.53319 -0.72071,-0.79102 0,-0.0703 0.0645,-0.14061 0.19336,-0.21094 0.12891,-0.082 0.19336,-0.16405 0.19336,-0.24609 0,-0.0586 -0.0351,-0.18163 -0.10547,-0.36914 0.4336,-0.21093 0.85547,-0.31639 1.26563,-0.31641 l 0.10547,0.0703 0.3164,-0.33399 c 0.0937,-0.0937 0.41602,-0.2578 0.9668,-0.49219 l 0.12305,0.10547 0.3164,-0.36914 0.79102,0.0527 0.58008,-0.19336 0.10546,0.0703 0.14063,-0.75586 0.33398,0 c 0.22266,0.48048 0.50977,0.79689 0.86133,0.94922 l 0.14063,-0.26367 0.24609,0.19336 0.19336,-0.12305 c 0.39843,0.0352 0.73828,0.13478 1.01953,0.29883 0.29296,0.16407 0.56249,0.26954 0.8086,0.3164 0.24608,0.0469 0.43944,0.1465 0.58007,0.29883 l 0.21094,-0.1582 0.0703,0.26367 0.47461,0.24609 0.0352,-0.10546 0.31641,0.10546 0.26367,0.35157 c 0.0937,0.12892 0.21678,0.24024 0.36914,0.33398 l 0.59765,0.35156 0.0703,0.19336 0.43945,0.14063 0,0.10547 c 0.29296,0.15235 0.45702,0.36915 0.49219,0.65039 l 0.40429,0.24609 0.28125,0.65039 0.17579,0 0,0.33399 0.21093,0.21093 c 0.0586,0.0703 0.12304,0.2754 0.19336,0.61524 l 0.28125,0.0703 c 0.0352,0.44532 0.19335,0.75587 0.47461,0.93164 l 0,0.47461 0.28125,0.38672 -0.0352,0.43945 c -2e-5,0.0117 0.0586,0.14649 0.17578,0.4043 0.11717,0.25782 0.18162,0.52735 0.19336,0.80859 l -0.17579,0.0703 0.0703,0.29882 0,0.28125 0.17578,0.0352 -0.2461,0.7207 0.2461,0.65039 m -0.9668,-1.10742 -0.0352,-0.29883 0.0352,-0.21093 -0.19336,-0.65039 0.15821,-0.35157 -0.22852,-0.47461 -0.0352,-0.43945 -0.3164,-0.59766 -0.14063,-0.47461 -0.65039,-1.16015 -0.36914,-0.31641 -0.24609,-0.79101 -0.47461,-0.17578 -0.49219,-0.68555 0,-0.14063 -0.4043,-0.12304 -0.35156,0.0351 -0.47461,-0.63281 -0.24609,0.0703 -0.19336,-0.33398 -0.52735,-0.10547 -0.43945,0 -0.0703,-0.14063 -0.24609,0.14063 -0.19336,-0.21094 -0.2461,0.0703 -0.14062,-0.24609 -0.33399,0.0703 -1.14258,-0.19336 c -0.22266,0.10549 -0.33398,0.26369 -0.33398,0.47461 0,0.0469 0.0176,0.11134 0.0527,0.19336 0.0469,0.0703 0.0703,0.26955 0.0703,0.59766 l -0.12305,0.75586 0.26367,0.79101 0.28125,0.26368 -0.28125,0.63281 0.0703,0.61523 -0.21093,1.30078 0.14062,0.28125 -0.17578,0.43946 0.31641,0.42187 -0.17578,0.12305 0.0352,0.45703 0.28125,0.17578 -0.28125,0.33399 0.21094,0.35156 -0.35156,0.47461 0.14062,0.7207 -0.0352,0.58008 0.17578,0.65039 1.33593,-0.0879 0.0703,0.22851 c 0.15233,-0.19921 0.23437,-0.29882 0.24609,-0.29882 0.0117,0 0.13476,0.13476 0.36914,0.40429 0.0703,-0.0117 0.1582,-0.0351 0.26367,-0.0703 0.11718,-0.0469 0.19336,-0.0703 0.22852,-0.0703 0.1289,0 0.33398,0.0469 0.61523,0.14062 0.0703,-0.14062 0.1582,-0.21093 0.26368,-0.21093 0.0586,0 0.10546,0.0469 0.14062,0.14062 l 0.5625,0 0.43945,0.0703 0.54493,-0.21093 0.0352,0.14062 c 0.85546,-0.10547 1.37108,-0.24023 1.54688,-0.4043 l 0.10547,0 c 0.18748,10e-6 0.28123,-0.10546 0.28125,-0.3164 l 0.26367,0.10547 0.0352,-0.4043 0.31641,-0.0703 0.0703,-0.35157 -0.10547,-0.36914 0.26368,-0.21093 -0.0879,-0.21094 0.12305,-0.21094"
         id="path3002"
         style="font-weight:normal;stroke:#000000;stroke-width:2;stroke-miterlimit:4;stroke-opacity:1;stroke-dasharray:none;-inkscape-font-specification:Bradley Hand ITC" />
      <path
         d="m 139.58398,346.79651 -0.5625,0.61523 c -0.0117,0.19923 -0.0352,0.36329 -0.0703,0.49219 -0.0234,0.14063 -0.0645,0.26954 -0.12304,0.38672 -0.0703,0.11719 -0.15822,0.22852 -0.26367,0.33398 -0.0586,0.0586 -0.1758,0.26368 -0.35157,0.61524 -0.12892,0.24609 -0.26954,0.46875 -0.42187,0.66797 -0.15236,0.21094 -0.31642,0.39844 -0.49219,0.5625 -0.18751,0.16406 -0.39259,0.3164 -0.61523,0.45703 -0.32814,0.17578 -0.62111,0.38672 -0.87891,0.63281 l -0.29883,0.0527 c -0.082,0.0117 -0.3047,0.1582 -0.66797,0.43945 l -0.40429,0.0351 -0.82618,0.61524 -0.28125,-0.17578 -0.75586,0.35156 -0.7207,-0.17578 -0.21094,0.26367 -0.43945,-0.0879 -0.42187,0.0879 -0.12305,-0.12305 -0.49219,-0.0879 c -0.19922,-0.0351 -0.36914,-0.11133 -0.50976,-0.22851 l -0.58008,-0.47461 -0.52735,-0.79102 c -0.24609,-0.26953 -0.36914,-0.59179 -0.36914,-0.96679 l 0,-0.14063 -0.38672,-0.61523 0,-0.54493 -0.1582,-0.21093 0.0703,-0.72071 -0.14062,-0.58007 0.22851,-0.5625 -0.1582,-0.26368 0.36914,-0.58007 -0.10547,-0.75586 0.0879,-0.31641 c 0.0469,-0.28124 0.15821,-0.52148 0.33399,-0.7207 l 0.0352,-0.82617 0.26368,-0.21094 -0.10547,-0.22852 0.24609,-0.35156 c 0.0703,-0.4453 0.32226,-1.20116 0.75586,-2.26758 l 0.61524,-0.61523 0.17578,-0.43946 0.28125,-0.49218 c 0.0586,-0.28124 0.18163,-0.54491 0.36914,-0.79102 0.24609,2e-5 0.48632,-0.0996 0.7207,-0.29883 -0.0234,-0.39842 0.33398,-0.59764 1.07227,-0.59765 0.10546,1e-5 0.33397,0.0586 0.68554,0.17578 0.35156,0.1172 0.58007,0.31056 0.68555,0.58008 0.36327,10e-6 0.54491,0.12892 0.54492,0.38671 l 1.03711,0.0352 0.0352,0.33399 0.21093,0.24609 -0.0352,0.42187 0.26367,0.33399 -0.0352,0.45703 0.0703,0.26367 -0.0703,0.7207 0.17579,0.2461 0,0.36914 0.10546,0.75586 -0.7207,0.38672 -0.75586,-0.89649 -0.0703,-1.16015 -0.14063,-0.42188 0,-0.43945 -0.42187,-0.50977 c -0.12892,-0.16405 -0.39845,-0.37498 -0.80859,-0.63281 l -0.49219,0.21094 -0.43946,0 c -0.26953,0.0352 -0.52735,0.13478 -0.77343,0.29883 -0.23438,0.16407 -0.50391,0.51563 -0.8086,1.05468 -0.30469,0.52736 -0.55664,0.85548 -0.75586,0.98438 l -0.0351,0.50976 -0.29883,0.2461 0,0.7207 -0.35156,0.47461 -0.14063,0.49219 c -0.12891,0.25782 -0.22852,0.53907 -0.29883,0.84375 -0.0586,0.30469 -0.11719,0.46875 -0.17578,0.49219 l 0.0352,0.58007 -0.31641,0.75586 0.0703,0.54492 -0.14063,0.0352 -0.0352,1.37109 -0.0703,0.0352 0.0703,0.31641 -0.1582,0.14062 0.52734,0.61524 c 0.0586,0.0703 0.12305,0.26367 0.19336,0.58007 l -0.10546,0.10547 0.36914,0.50977 0.28125,0.10547 0.0351,0.35156 1.91602,0.43945 c 0.16405,-0.17578 0.3164,-0.26367 0.45703,-0.26367 0.0586,0 0.18163,0.0293 0.36914,0.0879 0.21093,-0.15234 0.37499,-0.22851 0.49219,-0.22851 l 0.26367,0.0351 c 0.0117,0 0.0937,-0.0469 0.24609,-0.14062 0.15234,-0.10547 0.38085,-0.16406 0.68555,-0.17578 0.19921,-0.41016 0.45116,-0.61524 0.75586,-0.61524 0.11718,0 0.21093,0.0117 0.28125,0.0352 0.60936,-0.25781 0.91405,-0.48633 0.91406,-0.68555 0.1289,-0.25781 0.38085,-0.38671 0.75586,-0.38672 l 0.14063,0 c 0.98436,-1.08984 1.45311,-1.68163 1.40625,-1.77539 0.26951,-0.23437 0.47459,-0.56835 0.61523,-1.00195 l 0.31641,-0.21094 0.0352,-0.47461 c 0.16405,0.12891 0.24608,0.45118 0.2461,0.9668"
         id="path3004"
         style="font-weight:normal;stroke:#000000;stroke-width:2;stroke-miterlimit:4;stroke-opacity:1;stroke-dasharray:none;-inkscape-font-specification:Bradley Hand ITC" />
      <path
         d="m 157.91796,349.39807 c 0.21092,0.29297 0.31639,0.62696 0.31641,1.00195 -2e-5,0.16407 -0.0117,0.26368 -0.0352,0.29883 l -0.86133,1.03711 -0.10547,0.43946 -0.50976,0.14062 -0.17578,0.35156 -0.54492,0.10547 -0.5625,0 -1.54688,-0.21094 -0.43945,0.21094 -0.58008,-0.21094 -0.75586,0.14063 -0.28125,-0.24609 c -0.8086,0.14062 -1.23048,0.21093 -1.26563,0.21093 l -0.65039,-0.14062 -1.24804,-0.0703 -0.79102,0.0703 -0.43945,-0.12305 c -0.29298,-0.082 -0.50977,-0.12305 -0.65039,-0.12305 -0.31641,0 -0.70899,0.082 -1.17774,0.2461 l -0.68554,-0.2461 c -0.85548,0 -1.55274,0.0937 -2.0918,0.28125 l -0.0703,0.4043 -0.33399,0.14063 -0.17578,0.24609 -0.3164,0.10547 -0.36915,-0.14063 -0.10546,-0.3164 0,-0.47461 0.10546,-0.2461 0.47461,-0.40429 c 0.14063,-0.28125 0.26367,-0.46289 0.36914,-0.54492 0.11719,-0.0937 0.31641,-0.1875 0.59766,-0.28125 0.0469,-0.0469 0.14062,-0.14063 0.28125,-0.28125 0.15234,-0.14063 0.22851,-0.29883 0.22852,-0.47461 l 0,-0.0703 c 0.26952,-0.0117 0.42187,-0.12304 0.45703,-0.33398 0.49218,-0.25781 0.76757,-0.41601 0.82617,-0.47461 0.0586,-0.0703 0.0879,-0.14648 0.0879,-0.22852 0.16406,-0.16406 0.3164,-0.27538 0.45703,-0.33398 0.082,-0.29297 0.3457,-0.62695 0.79102,-1.00195 0.32812,-0.0234 0.52148,-0.15234 0.58008,-0.38672 0.0703,-0.23437 0.17577,-0.43359 0.3164,-0.59766 l 0.19336,0 0,-0.24609 0.58008,-0.0703 0,-0.0703 c -1e-5,-0.0703 0.0703,-0.27538 0.21094,-0.61523 0.2578,-0.10546 0.39843,-0.27539 0.42187,-0.50977 0.23437,-0.22265 0.4746,-0.35155 0.7207,-0.38672 l 0.0352,-0.28125 0.4043,-0.26367 0.36914,-0.5625 c 0.14061,-0.19921 0.29296,-0.35741 0.45703,-0.47461 0.28124,-0.0703 0.43944,-0.26366 0.47461,-0.58008 l 0.49219,-0.38671 0.19336,-0.47461 0.35156,-0.2461 0.61523,-1.01953 0.58008,-0.38672 c 0.10546,-0.33983 0.24608,-0.59178 0.42188,-0.75586 l 0,-0.33398 c 0.30467,-0.0703 0.50975,-0.17577 0.61523,-0.31641 -0.082,-0.29295 -0.32228,-0.43944 -0.7207,-0.43945 l -0.14063,0 -0.89648,0.43945 -0.50977,-0.0703 -0.43945,0.14063 -0.63281,-0.0703 -0.43946,0.14063 -0.36914,-0.17578 -1.07226,0.35156 c -0.28126,-0.0703 -0.55665,-0.10546 -0.82617,-0.10547 -0.33986,10e-6 -0.68556,0.0352 -1.03711,0.10547 l -0.36914,-0.17578 -0.75586,0.10547 -0.35157,-0.10547 -0.68554,0.17578 -1.125,-0.24609 -0.89649,0.0703 -1.61719,-0.4043 -0.61523,0.1582 -0.47461,-0.22851 -0.17578,-0.5625 0.43945,-0.33399 0.35157,0.10547 c 0.21093,-0.15233 0.45117,-0.24608 0.7207,-0.28125 l 0.47461,0.17578 0.68554,0 c 0,0.24611 0.10547,0.36916 0.31641,0.36914 l 0.17578,-0.0351 0.72071,0 0.50976,0.14062 0.61524,-0.10547 0.54492,0.17579 0.49218,-0.10547 0.10547,0 0.43946,-0.0352 0.61523,0.0703 0.21094,-0.14062 3.16406,0.0351 0.4043,0.10547 0.58008,-0.26367 0.35156,0 0,-0.24609 1.4414,0 0.58008,-0.14063 0.5625,0.14063 0.8086,-0.31641 0.52734,0.0352 0.65039,-0.10547 0.0703,0 c 0.28124,1e-5 0.45116,0.25197 0.50977,0.75586 l -0.33399,0.21094 -0.3164,0.28125 -0.50977,0.22851 -1.07226,1.10742 -0.33399,0.0352 -0.82617,1.16016 c -0.79689,0.28126 -1.23634,0.75001 -1.31836,1.40625 l -0.47461,0.42187 -0.65039,0.9668 -0.35156,0.19336 -1.47656,1.93359 -0.50977,0.17578 -0.47461,0.65039 -0.3164,0.10547 -0.10547,0.33399 -0.72071,0.65039 -0.33398,0.61523 -0.68555,0.59766 -0.82617,1.05468 -0.38672,0.10547 -0.0703,0.2461 -0.26367,0.14062 c 0.10546,0.2461 0.25195,0.36914 0.43945,0.36914 0.33984,0.11719 0.60351,0.2461 0.79102,0.38672 l 0.21093,-0.0703 1.77539,-0.0352 0.38672,0.19336 1.91602,-0.1582 1.79297,0.33398 c 0.10545,-0.0703 0.21678,-0.10546 0.33398,-0.10547 0.0937,1e-5 0.21093,0.10547 0.35156,0.31641 l 0.65039,-0.38672 0.6504,0.2461 0.58007,-0.17579 0.63282,0.10547 0.61523,-0.0351 c 0.1992,-0.19922 0.416,-0.29883 0.65039,-0.29883 0.1992,-0.28125 0.34569,-0.43945 0.43945,-0.47461 0.10546,-0.0469 0.17577,-0.17578 0.21094,-0.38672 0.23436,-0.14062 0.35155,-0.3457 0.35156,-0.61523 l 0,-0.17578 0.12305,-0.35157 0.28125,0.10547"
         id="path3006"
         style="font-weight:normal;stroke:#000000;stroke-width:2;stroke-miterlimit:4;stroke-opacity:1;stroke-dasharray:none;-inkscape-font-specification:Bradley Hand ITC" />
    </g>
  </g>
</svg>
