<?xml version="1.0" encoding="UTF-8" standalone="no"?>
<!-- Created with Inkscape (http://www.inkscape.org/) -->

<svg
   xmlns:dc="http://purl.org/dc/elements/1.1/"
   xmlns:cc="http://creativecommons.org/ns#"
   xmlns:rdf="http://www.w3.org/1999/02/22-rdf-syntax-ns#"
   xmlns:svg="http://www.w3.org/2000/svg"
   xmlns="http://www.w3.org/2000/svg"
   xmlns:sodipodi="http://sodipodi.sourceforge.net/DTD/sodipodi-0.dtd"
   xmlns:inkscape="http://www.inkscape.org/namespaces/inkscape"
   version="1.2"
   width="65.943413"
   height="49.5625"
   id="svg2"
   sodipodi:docname="logo-inverted.svg"
   inkscape:version="0.92.5 (2060ec1f9f, 2020-04-08)">
  <sodipodi:namedview
     pagecolor="#ffffff"
     bordercolor="#666666"
     borderopacity="1"
     objecttolerance="10"
     gridtolerance="10"
     guidetolerance="10"
     inkscape:pageopacity="0"
     inkscape:pageshadow="2"
     inkscape:window-width="1633"
     inkscape:window-height="1448"
     id="namedview15"
     showgrid="false"
     inkscape:zoom="4.5948486"
     inkscape:cx="32.971706"
     inkscape:cy="24.78125"
     inkscape:window-x="2268"
     inkscape:window-y="190"
     inkscape:window-maximized="0"
     inkscape:current-layer="svg2" />
  <defs
     id="defs4" />
  <metadata
     id="metadata7">
    <rdf:RDF>
      <cc:Work
         rdf:about="">
        <dc:format>image/svg+xml</dc:format>
        <dc:type
           rdf:resource="http://purl.org/dc/dcmitype/StillImage" />
        <dc:title></dc:title>
      </cc:Work>
    </rdf:RDF>
  </metadata>
  <g
     aria-label="bpcz"
     style="font-style:normal;font-weight:normal;font-size:40px;line-height:1.25;font-family:sans-serif;letter-spacing:0px;word-spacing:0px;fill:#ffffff;fill-opacity:1;stroke:#ffffff;stroke-width:2;stroke-miterlimit:4;stroke-dasharray:none;stroke-opacity:1"
     id="text828"
     transform="matrix(0.73186699,0,0,0.73186699,-1.9507683,6.7000178)">
    <path
       d="m 21.853808,27.085861 -0.328125,0.421875 0.09375,1.148438 -1.007813,1.40625 v 0.5625 l -0.632812,0.726562 0.257812,0.421875 q -0.46875,0.445313 -1.007812,1.5 l -0.960938,0.585938 q -0.234375,0.375 -0.632812,0.445312 -0.375,0.07031 -0.726563,0.164063 l -0.09375,0.28125 -0.140625,-0.1875 -0.421875,0.1875 -0.304687,-0.1875 q -0.28125,0 -0.65625,0.234375 l 0.09375,0.210937 -0.679688,-0.09375 -0.1875,0.234375 -0.328125,-0.234375 -0.867187,0.46875 -0.445313,-0.46875 -0.960937,0.09375 -0.796875,-0.234375 Q 10.252245,34.538986 9.9006827,34.046799 l -0.5625,-0.1875 -0.3046875,-0.914063 q -0.046875,-0.328125 -0.65625,-0.492187 l -0.4453125,0.1875 -0.65625,-0.28125 -0.7265625,-1.640625 0.140625,-0.375 -0.28125,-0.539063 v -0.890625 l -0.1875,-0.398437 0.1875,-0.773438 -0.3515625,-0.421875 0.1640625,-0.539062 v -1.523438 l 0.1875,-0.492187 0.09375,-3.070313 0.1875,-1.195312 -0.1875,-0.1875 0.328125,-1.101563 -0.140625,-0.679687 v -0.65625 l 0.234375,-0.351563 q -0.09375,-1.359375 -0.234375,-1.523437 l 0.4453125,-1.546875 -0.3046875,-1.640625 0.3046875,-0.1875 -0.2109375,-0.5625 v -0.867188 l -0.09375,-1.4531248 0.140625,-0.421875 -0.1875,-0.8671875 0.1875,-0.09375 q -0.234375,-0.1171875 -0.234375,-0.28125 0,-0.070312 0.1171875,-0.2578125 0.1171875,-0.2109375 0.1171875,-0.421875 v -0.140625 l -0.1875,-0.4453125 q 0.09375,-0.375 0.09375,-0.609375 0,-0.515625 -0.375,-1.0546875 0,-0.3515625 0.28125,-0.3515625 l -0.28125,-0.703125 0.1875,-0.5859375 -0.375,-0.9609375 0.515625,-0.046875 -0.046875,-0.421875 0.3515625,-0.1875 q 0.1875,0.2109375 0.328125,0.84375 l 0.46875,0.3984375 -0.328125,0.28125 0.6328125,0.7734375 -0.3046875,0.421875 -0.328125,0.09375 q 0.375,0.3984375 0.375,0.4453125 0,0.1640625 -0.1875,0.234375 l 0.234375,0.328125 -0.234375,0.2109375 0.4453125,0.328125 q -0.2109375,0.1875 -0.2109375,0.46875 l 0.4453125,0.9609375 -0.1875,0.5390625 0.1875,0.140625 -0.234375,0.09375 q 0.234375,0.328125 0.234375,0.4921875 0,0.2109375 -0.3984375,0.515625 l 0.4921875,0.09375 q -0.1171875,0.5859378 -0.1640625,1.0078128 -0.046875,0.421875 -0.375,0.960937 0.3515625,0.140625 0.3515625,0.867188 l -0.140625,0.585937 0.140625,0.421875 -0.4453125,1.96875 0.4453125,0.632813 -0.4453125,0.796875 0.140625,0.726562 -0.140625,0.492188 0.3046875,0.421875 -0.4453125,0.445312 0.140625,0.328125 -0.046875,0.421875 0.046875,0.257813 -0.140625,0.421875 0.234375,0.421875 -0.234375,0.351562 0.234375,0.46875 -0.234375,0.1875 q 0.140625,0.375 0.140625,0.585938 0,0.304687 -0.328125,0.585937 l 0.28125,0.234375 -0.09375,0.726563 v 1.898437 q 0.3984375,0.398438 0.4453125,0.398438 0.328125,0 0.328125,-0.726563 v -0.1875 q 0.2109375,-0.164062 0.4921875,-0.5625 0.28125,-0.398437 0.28125,-0.445312 v -0.328125 l 0.234375,-0.257813 q 0.070312,-0.9375 0.375,-1.335937 l -0.046875,-0.914063 0.3046873,-0.04687 0.04687,-0.28125 0.140625,0.09375 0.140625,-0.679687 0.328125,-0.65625 v -0.304688 l 0.304688,-0.5625 -0.07031,-0.445312 0.445313,-0.609375 0.328125,-0.164063 v -0.328125 q 0.375,-0.210937 0.445312,-0.773437 l 0.515625,-0.609375 0.234375,0.09375 v -0.234375 l 0.257813,-0.210938 q 0.02344,-0.421875 0.609375,-1.195312 -0.1875,-0.117188 -0.1875,-0.234375 0,-0.140625 0.234375,-0.1875 l 0.09375,-0.234375 q 0.234375,-0.04687 0.867187,-0.492188 l 0.257813,-0.726562 h 0.28125 l -0.09375,-0.234375 q 0.445312,-0.328125 1.335937,-0.328125 l -0.375,-0.09375 0.46875,-0.257813 h 0.1875 l -0.1875,-0.1875 0.28125,-0.09375 -0.09375,-0.140625 h 0.492188 l -0.04687,0.140625 1.195312,0.1875 0.257813,0.46875 q 0.117187,0.210938 0.234375,1.265625 l 0.421875,0.04687 0.09375,0.679688 0.421875,0.375 v 0.585937 l 0.164062,0.234375 -0.04687,0.421875 0.5625,0.304688 0.09375,0.914062 v 0.1875 q 0,0.492188 0.585938,1.429688 -0.164063,0.46875 -0.351563,0.585937 0.234375,0.28125 0.445313,0.28125 0.1875,0 0.328125,-0.09375 0,0.5625 -0.421875,0.773438 l 0.28125,1.96875 q 0.140625,0.07031 0.140625,0.234375 l -0.09375,0.421875 -0.04687,2.554687 0.140625,0.421875 -0.140625,0.773438 z M 20.752245,23.570236 20.61162,22.515549 v -0.820313 l -0.375,-2.484375 -0.445312,-1.78125 -0.65625,-1.640625 -1.125,-1.851562 q -0.09375,-0.257813 -0.375,-0.539063 l -0.726563,0.1875 -0.328125,-0.09375 -0.328125,0.445313 -0.632812,0.140625 v 0.609375 q 0,0.09375 -0.375,0.164062 -0.351563,0.04687 -0.539063,0.703125 -0.585937,0.515625 -0.773437,0.84375 -0.164063,0.328125 -0.515625,0.703125 h -0.234375 l -0.304688,1.101563 -0.375,0.5625 -0.632812,1.546875 q 0,0.726562 -0.28125,1.195312 -0.28125,0.46875 -0.632813,1.101563 l 0.04687,0.773437 -0.65625,0.960938 -0.3984373,1.59375 -0.46875,0.375 q 0.046875,0.04687 0.046875,0.09375 0,0.09375 -0.046875,0.140625 0.09375,0.234375 0.09375,0.773437 0,0.679688 -0.234375,1.148438 l -0.3515625,0.140625 0.2109375,0.773437 -0.3984375,0.140625 0.046875,0.492188 -0.140625,0.375 q -0.421875,0.28125 -0.421875,0.539062 0,0.234375 0.28125,0.234375 -0.1875,0.1875 -0.1875,0.328125 0,0.117188 0.1875,0.28125 l 1.0078125,-0.421875 0.6796873,0.04687 q 0,0.140625 0.09375,0.140625 h 0.04687 q 0.5625,0 0.609375,0.398438 l 0.09375,-0.257813 0.07031,0.398438 q 0.515625,0.09375 0.703125,0.234375 v 0.632812 q 0.328125,0.140625 0.773437,0.609375 h 1.640625 l 1.335938,-0.328125 0.09375,-0.28125 0.28125,0.1875 0.398437,-0.304687 q 0.1875,-0.140625 1.054688,-0.375 l -0.09375,-0.28125 h 0.421875 v -0.234375 h 0.140625 q 0.328125,0 0.492187,-0.5625 0.164063,-0.585938 0.234375,-0.65625 l 1.335938,-1.476563 v -0.632812 l 0.539062,-1.101563 v -1.335937 l 0.140625,-1.40625 -0.04687,-0.65625 z"
       style="font-style:normal;font-variant:normal;font-weight:normal;font-stretch:normal;font-size:48px;font-family:'Bradley Hand ITC';-inkscape-font-specification:'Bradley Hand ITC, Normal';font-variant-ligatures:normal;font-variant-caps:normal;font-variant-numeric:normal;font-feature-settings:normal;text-align:start;writing-mode:lr-tb;text-anchor:start;fill:#ffffff;fill-opacity:1;stroke:#ffffff;stroke-width:2;stroke-miterlimit:4;stroke-dasharray:none;stroke-opacity:1"
       id="path830"
       inkscape:connector-curvature="0" />
    <path
       d="m 43.791308,29.382736 -0.445313,0.632813 0.304688,0.1875 q -0.28125,0.445312 -0.632813,0.726562 l -0.09375,0.609375 -0.585937,0.04687 -0.164063,0.351563 q -0.07031,0.140625 -0.796875,0.609375 l -0.328125,-0.09375 q -0.28125,0.304687 -1.335937,0.445312 l -0.304688,-0.210937 -0.04687,0.398437 -1.101562,-0.539062 q -0.09375,0 -0.515625,0.351562 l -0.1875,-0.210937 -1.453125,-0.140625 -0.867188,0.140625 -0.421875,-0.375 -1.007812,0.140625 -0.492188,-0.421875 q -0.46875,0.234375 -0.75,0.234375 -0.328125,0 -0.726562,-0.234375 -0.234375,0.234375 -0.234375,0.515625 0,0.07031 0.09375,0.445312 0.09375,0.375 0.09375,0.5625 0,0.28125 -0.234375,0.914063 l 0.1875,0.632812 -0.398438,0.46875 q 0.164063,1.007813 0.164063,1.875 l -0.164063,1.335938 0.164063,1.6875 -0.445313,0.632812 0.28125,0.914063 -0.28125,1.101562 0.445313,0.140625 v 0.515625 q -0.351563,0.07031 -0.351563,0.492188 0,0.09375 0.09375,0.46875 l 0.140625,0.04687 Q 30.971,45.413976 30.971,45.695226 l -0.09375,3.796875 q -0.02344,0.820313 -0.375,0.820313 -0.117187,0 -0.679687,-0.09375 l 0.04687,-0.914063 -0.234375,-2.015625 0.375,-0.773437 0.140625,-1.429688 -0.28125,-1.640625 q 0.375,-0.257812 0.375,-0.515625 0,-0.140625 -0.28125,-1.054687 l 0.328125,-0.632813 -0.328125,-1.054687 0.328125,-0.820313 -0.140625,-0.867187 0.445312,-0.28125 q -0.679687,-0.164063 -0.679687,-0.773438 0,-0.328125 0.375,-1.734375 l -0.28125,-0.5625 0.1875,-0.773437 -0.1875,-0.1875 0.1875,-0.28125 -0.1875,-1.734375 0.28125,-2.296875 -0.328125,-0.492188 0.679687,-0.328125 -0.351562,-0.09375 -0.28125,-0.492187 -0.28125,-0.140625 0.234375,-0.140625 0.04687,0.140625 0.140625,-0.234375 -0.1875,-0.1875 0.539062,0.09375 -0.210937,-0.304688 0.210937,0.04687 v -0.234375 q -0.351562,-0.164062 -0.351562,-0.328125 0,-0.328125 0.140625,-0.632812 l -0.140625,-0.515625 q -0.28125,-0.07031 -0.28125,-0.257813 0,-0.09375 0.234375,-0.09375 h 0.09375 v -0.140625 h 0.304687 l -0.351562,-0.421875 0.140625,-0.632812 v -0.5625 l 0.04687,-0.351563 -0.1875,-0.773437 0.1875,-0.84375 -0.1875,-0.679688 0.1875,-0.867187 -0.1875,-0.328125 0.04687,-0.773438 -0.04687,-0.539062 0.04687,-0.75 Q 29.93973,17.757721 29.869418,16.913971 h -0.421875 l -0.398438,-0.257812 -0.726562,0.585937 v -0.140625 l -0.328125,0.140625 H 27.31473 l -0.140625,0.28125 -0.5625,0.04687 -0.445312,0.445313 -0.5625,-0.09375 -0.398438,0.703125 -0.609375,-0.28125 -0.140625,0.375 q -0.960937,-0.539063 -0.960937,-1.054688 0,-0.140625 0.257812,-0.28125 0.257813,-0.164062 0.257813,-0.328125 0,-0.117187 -0.140625,-0.492187 0.867187,-0.421875 1.6875,-0.421875 l 0.140625,0.09375 0.421875,-0.445313 q 0.1875,-0.1875 1.289062,-0.65625 l 0.164063,0.140625 0.421875,-0.492187 1.054687,0.07031 0.773438,-0.257812 0.140625,0.09375 0.1875,-1.007813 h 0.445312 q 0.445313,0.960938 1.148438,1.265625 l 0.1875,-0.351562 0.328125,0.257812 0.257812,-0.164062 q 0.796875,0.07031 1.359375,0.398437 0.585938,0.328125 1.078125,0.421875 0.492188,0.09375 0.773438,0.398438 l 0.28125,-0.210938 0.09375,0.351563 0.632812,0.328125 0.04687,-0.140625 0.421875,0.140625 0.351563,0.46875 q 0.1875,0.257812 0.492187,0.445312 l 0.796875,0.46875 0.09375,0.257813 0.585938,0.1875 v 0.140625 q 0.585937,0.304687 0.65625,0.867187 l 0.539062,0.328125 0.375,0.867188 h 0.234375 v 0.445312 l 0.28125,0.28125 q 0.117188,0.140625 0.257813,0.820313 l 0.375,0.09375 q 0.07031,0.890625 0.632812,1.242187 v 0.632813 l 0.375,0.515625 -0.04687,0.585937 q 0,0.02344 0.234375,0.539063 0.234375,0.515625 0.257813,1.078125 l -0.234375,0.09375 0.09375,0.398437 v 0.375 l 0.234375,0.04687 -0.328125,0.960938 z m -1.289063,-1.476562 -0.04687,-0.398438 0.04687,-0.28125 -0.257812,-0.867187 0.210937,-0.46875 -0.304687,-0.632813 -0.04687,-0.585937 -0.421875,-0.796875 -0.1875,-0.632813 -0.867188,-1.546875 -0.492187,-0.421875 -0.328125,-1.054687 -0.632813,-0.234375 -0.65625,-0.914063 v -0.1875 l -0.539062,-0.164062 -0.46875,0.04687 -0.632813,-0.84375 -0.328125,0.09375 -0.257812,-0.445313 -0.703125,-0.140625 H 35.00225 l -0.09375,-0.1875 -0.328125,0.1875 -0.257812,-0.28125 -0.328125,0.09375 -0.1875,-0.328125 -0.445313,0.09375 -1.523437,-0.257812 q -0.445313,0.210937 -0.445313,0.632812 0,0.09375 0.07031,0.257813 0.09375,0.140625 0.09375,0.796875 l -0.164063,1.007812 0.351563,1.054688 0.375,0.351562 -0.375,0.84375 0.09375,0.820313 -0.28125,1.734375 0.1875,0.375 -0.234375,0.585937 0.421875,0.5625 -0.234375,0.164063 0.04687,0.609375 0.375,0.234375 -0.375,0.445312 0.28125,0.46875 -0.46875,0.632813 0.1875,0.960937 -0.04687,0.773438 0.234375,0.867187 1.78125,-0.117187 0.09375,0.304687 q 0.304687,-0.398437 0.328125,-0.398437 0.02344,0 0.492187,0.539062 0.140625,-0.02344 0.351563,-0.09375 0.234375,-0.09375 0.304687,-0.09375 0.257813,0 0.820313,0.1875 0.140625,-0.28125 0.351562,-0.28125 0.117188,0 0.1875,0.1875 h 0.75 l 0.585938,0.09375 0.726562,-0.28125 0.04687,0.1875 q 1.710938,-0.210937 2.0625,-0.539062 h 0.140625 q 0.375,0 0.375,-0.421875 l 0.351563,0.140625 0.04687,-0.539063 0.421875,-0.09375 0.09375,-0.46875 -0.140625,-0.492187 0.351562,-0.28125 -0.117187,-0.28125 z"
       style="font-style:normal;font-variant:normal;font-weight:normal;font-stretch:normal;font-size:48px;font-family:'Bradley Hand ITC';-inkscape-font-specification:'Bradley Hand ITC, Normal';font-variant-ligatures:normal;font-variant-caps:normal;font-variant-numeric:normal;font-feature-settings:normal;text-align:start;writing-mode:lr-tb;text-anchor:start;fill:#ffffff;fill-opacity:1;stroke:#ffffff;stroke-width:2;stroke-miterlimit:4;stroke-dasharray:none;stroke-opacity:1"
       id="path832"
       inkscape:connector-curvature="0" />
    <path
       d="m 64.814745,26.687424 -0.75,0.820312 q -0.02344,0.398438 -0.09375,0.65625 -0.04687,0.28125 -0.164062,0.515625 -0.140625,0.234375 -0.351563,0.445313 -0.117187,0.117187 -0.46875,0.820312 -0.257812,0.492188 -0.5625,0.890625 -0.304687,0.421875 -0.65625,0.75 -0.375,0.328125 -0.820312,0.609375 -0.65625,0.351563 -1.171875,0.84375 l -0.398438,0.07031 q -0.164062,0.02344 -0.890625,0.585937 l -0.539062,0.04687 -1.101563,0.820313 -0.375,-0.234375 -1.007812,0.46875 -0.960938,-0.234375 -0.28125,0.351562 -0.585937,-0.117187 -0.5625,0.117187 -0.164063,-0.164062 -0.65625,-0.117188 q -0.398437,-0.07031 -0.679687,-0.304687 L 50.79912,33.695236 50.095995,32.640549 q -0.492187,-0.539063 -0.492187,-1.289063 v -0.1875 l -0.515625,-0.820312 v -0.726563 l -0.210938,-0.28125 0.09375,-0.960937 -0.1875,-0.773438 0.304688,-0.75 -0.210938,-0.351562 0.492188,-0.773438 -0.140625,-1.007812 0.117187,-0.421875 q 0.09375,-0.5625 0.445313,-0.960938 l 0.04687,-1.101562 0.351562,-0.28125 -0.140625,-0.304688 0.328125,-0.46875 q 0.140625,-0.890625 1.007813,-3.023437 l 0.820312,-0.820313 0.234375,-0.585937 0.375,-0.65625 q 0.117188,-0.5625 0.492188,-1.054688 0.492187,0 0.960937,-0.398437 -0.04687,-0.796875 1.429688,-0.796875 0.210937,0 0.914062,0.234375 0.703125,0.234375 0.914063,0.773437 0.726562,0 0.726562,0.515625 l 1.382813,0.04687 0.04687,0.445313 0.28125,0.328125 -0.04687,0.5625 0.351562,0.445312 -0.04687,0.609375 0.09375,0.351563 -0.09375,0.960937 0.234375,0.328125 v 0.492188 l 0.140625,1.007812 -0.960937,0.515625 -1.007813,-1.195312 -0.09375,-1.546875 -0.1875,-0.5625 v -0.585938 l -0.5625,-0.679687 q -0.257812,-0.328125 -1.078125,-0.84375 l -0.65625,0.28125 h -0.585937 q -0.539063,0.07031 -1.03125,0.398437 -0.46875,0.328125 -1.078125,1.40625 -0.609375,1.054688 -1.007813,1.3125 l -0.04687,0.679688 -0.398437,0.328125 v 0.960937 l -0.46875,0.632813 -0.1875,0.65625 q -0.257813,0.515625 -0.398438,1.125 -0.117187,0.609375 -0.234375,0.65625 l 0.04687,0.773437 -0.421875,1.007813 0.09375,0.726562 -0.1875,0.04687 -0.04687,1.828125 -0.09375,0.04687 0.09375,0.421875 -0.210937,0.1875 0.703125,0.820313 q 0.117187,0.140625 0.257812,0.773437 l -0.140625,0.140625 0.492188,0.679688 0.375,0.140625 0.04687,0.46875 2.554687,0.585937 q 0.328125,-0.351562 0.609375,-0.351562 0.117188,0 0.492188,0.117187 0.421875,-0.304687 0.65625,-0.304687 l 0.351562,0.04687 q 0.02344,0 0.328125,-0.1875 0.304688,-0.210938 0.914063,-0.234375 0.398437,-0.820313 1.007812,-0.820313 0.234375,0 0.375,0.04687 1.21875,-0.515625 1.21875,-0.914062 0.257813,-0.515625 1.007813,-0.515625 h 0.1875 q 1.96875,-2.179688 1.875,-2.367188 0.539062,-0.46875 0.820312,-1.335937 l 0.421875,-0.28125 0.04687,-0.632813 q 0.328125,0.257813 0.328125,1.289063 z"
       style="font-style:normal;font-variant:normal;font-weight:normal;font-stretch:normal;font-size:48px;font-family:'Bradley Hand ITC';-inkscape-font-specification:'Bradley Hand ITC, Normal';font-variant-ligatures:normal;font-variant-caps:normal;font-variant-numeric:normal;font-feature-settings:normal;text-align:start;writing-mode:lr-tb;text-anchor:start;fill:#ffffff;fill-opacity:1;stroke:#ffffff;stroke-width:2;stroke-miterlimit:4;stroke-dasharray:none;stroke-opacity:1"
       id="path834"
       inkscape:connector-curvature="0" />
    <path
       d="m 89.260058,30.156174 q 0.421875,0.585937 0.421875,1.335937 0,0.328125 -0.04687,0.398438 l -1.148438,1.382812 -0.140625,0.585938 -0.679687,0.1875 -0.234375,0.46875 -0.726563,0.140625 h -0.75 l -2.0625,-0.28125 -0.585937,0.28125 -0.773438,-0.28125 -1.007812,0.1875 -0.375,-0.328125 q -1.617188,0.28125 -1.6875,0.28125 l -0.867188,-0.1875 -1.664062,-0.09375 -1.054688,0.09375 -0.585937,-0.164063 q -0.585938,-0.164062 -0.867188,-0.164062 -0.632812,0 -1.570312,0.328125 L 71.93975,33.999924 q -1.710937,0 -2.789062,0.375 l -0.09375,0.539062 -0.445313,0.1875 -0.234375,0.328125 -0.421875,0.140625 -0.492187,-0.1875 -0.140625,-0.421875 V 34.328049 L 67.463188,33.999924 68.096,33.460861 q 0.28125,-0.5625 0.492188,-0.726562 0.234375,-0.1875 0.796875,-0.375 0.09375,-0.09375 0.375,-0.375 0.304687,-0.28125 0.304687,-0.632813 v -0.09375 q 0.539063,-0.02344 0.609375,-0.445312 0.984375,-0.515625 1.101563,-0.632813 0.117187,-0.140625 0.117187,-0.304687 0.328125,-0.328125 0.609375,-0.445313 0.164063,-0.585937 1.054688,-1.335937 0.65625,-0.04687 0.773437,-0.515625 0.140625,-0.46875 0.421875,-0.796875 h 0.257813 v -0.328125 l 0.773437,-0.09375 v -0.09375 q 0,-0.140625 0.28125,-0.820313 0.515625,-0.210937 0.5625,-0.679687 0.46875,-0.445313 0.960938,-0.515625 l 0.04687,-0.375 0.539062,-0.351563 0.492188,-0.75 q 0.28125,-0.398437 0.609375,-0.632812 0.5625,-0.140625 0.632812,-0.773438 l 0.65625,-0.515625 0.257813,-0.632812 0.46875,-0.328125 0.820312,-1.359375 0.773438,-0.515625 q 0.210937,-0.679688 0.5625,-1.007813 v -0.445312 q 0.609375,-0.140625 0.820312,-0.421875 -0.164062,-0.585938 -0.960937,-0.585938 h -0.1875 l -1.195313,0.585938 -0.679687,-0.09375 -0.585938,0.1875 -0.84375,-0.09375 -0.585937,0.1875 -0.492188,-0.234375 -1.429687,0.46875 q -0.5625,-0.140625 -1.101563,-0.140625 -0.679687,0 -1.382812,0.140625 l -0.492188,-0.234375 -1.007812,0.140625 -0.46875,-0.140625 -0.914063,0.234375 -1.5,-0.328125 -1.195312,0.09375 -2.15625,-0.539063 -0.820313,0.210938 -0.632812,-0.304688 -0.234375,-0.75 0.585937,-0.445312 0.46875,0.140625 q 0.421875,-0.304688 0.960938,-0.375 l 0.632812,0.234375 h 0.914063 q 0,0.492187 0.421875,0.492187 l 0.234375,-0.04687 h 0.960937 l 0.679688,0.1875 0.820312,-0.140625 0.726563,0.234375 0.65625,-0.140625 h 0.140625 l 0.585937,-0.04687 0.820313,0.09375 0.28125,-0.1875 4.21875,0.04687 0.539062,0.140625 0.773438,-0.351562 h 0.46875 v -0.328125 h 1.921875 l 0.773437,-0.1875 0.75,0.1875 1.078125,-0.421875 0.703125,0.04687 0.867188,-0.140625 h 0.09375 q 0.5625,0 0.679687,1.007812 l -0.445312,0.28125 -0.421875,0.375 -0.679688,0.304688 -1.429687,1.476562 -0.445313,0.04687 -1.101562,1.546875 q -1.59375,0.5625 -1.757813,1.875 l -0.632812,0.5625 -0.867188,1.289063 -0.46875,0.257812 -1.96875,2.578125 -0.679687,0.234375 -0.632813,0.867188 -0.421875,0.140625 -0.140625,0.445312 -0.960937,0.867188 -0.445313,0.820312 -0.914062,0.796875 -1.101563,1.40625 -0.515625,0.140625 -0.09375,0.328125 -0.351562,0.1875 q 0.210937,0.492188 0.585937,0.492188 0.679688,0.234375 1.054688,0.515625 l 0.28125,-0.09375 2.367187,-0.04687 0.515625,0.257812 2.554688,-0.210937 2.390625,0.445312 q 0.210937,-0.140625 0.445312,-0.140625 0.1875,0 0.46875,0.421875 l 0.867188,-0.515625 0.867187,0.328125 0.773438,-0.234375 0.84375,0.140625 0.820312,-0.04687 q 0.398438,-0.398437 0.867188,-0.398437 0.398437,-0.5625 0.585937,-0.632813 0.210938,-0.09375 0.28125,-0.515625 0.46875,-0.28125 0.46875,-0.820312 v -0.234375 l 0.164063,-0.46875 z"
       style="font-style:normal;font-variant:normal;font-weight:normal;font-stretch:normal;font-size:48px;font-family:'Bradley Hand ITC';-inkscape-font-specification:'Bradley Hand ITC, Normal';font-variant-ligatures:normal;font-variant-caps:normal;font-variant-numeric:normal;font-feature-settings:normal;text-align:start;writing-mode:lr-tb;text-anchor:start;fill:#ffffff;fill-opacity:1;stroke:#ffffff;stroke-width:2;stroke-miterlimit:4;stroke-dasharray:none;stroke-opacity:1"
       id="path836"
       inkscape:connector-curvature="0" />
  </g>
</svg>
