<?xml version="1.0" encoding="UTF-8" standalone="no"?>
<svg
   xmlns:dc="http://purl.org/dc/elements/1.1/"
   xmlns:cc="http://creativecommons.org/ns#"
   xmlns:rdf="http://www.w3.org/1999/02/22-rdf-syntax-ns#"
   xmlns:svg="http://www.w3.org/2000/svg"
   xmlns="http://www.w3.org/2000/svg"
   xmlns:sodipodi="http://sodipodi.sourceforge.net/DTD/sodipodi-0.dtd"
   xmlns:inkscape="http://www.inkscape.org/namespaces/inkscape"
   version="1.1"
   id="svg2"
   height="86.189217"
   width="196.89787"
   sodipodi:docname="logo-inverted.svg"
   inkscape:version="0.92.4 (5da689c313, 2019-01-14)">
  <sodipodi:namedview
     pagecolor="#ffffff"
     bordercolor="#666666"
     borderopacity="1"
     objecttolerance="10"
     gridtolerance="10"
     guidetolerance="10"
     inkscape:pageopacity="0"
     inkscape:pageshadow="2"
     inkscape:window-width="2101"
     inkscape:window-height="1144"
     id="namedview22"
     showgrid="false"
     inkscape:zoom="1.5337901"
     inkscape:cx="98.448936"
     inkscape:cy="43.094608"
     inkscape:window-x="1920"
     inkscape:window-y="27"
     inkscape:window-maximized="0"
     inkscape:current-layer="svg2" />
  <defs
     id="defs4" />
  <metadata
     id="metadata7">
    <rdf:RDF>
      <cc:Work
         rdf:about="">
        <dc:format>image/svg+xml</dc:format>
        <dc:type
           rdf:resource="http://purl.org/dc/dcmitype/StillImage" />
        <dc:title></dc:title>
      </cc:Work>
    </rdf:RDF>
  </metadata>
  <g
     id="g881">
    <path
       inkscape:connector-curvature="0"
       style="fill:#ffc227;fill-opacity:1;stroke-width:0.27447927"
       id="path2-7"
       d="M 42.127466,75.541925 28.427077,11.189216 77.307959,55.23046 11.8422,48.338396 68.891649,15.400885" />
    <path
       inkscape:connector-curvature="0"
       style="fill:#4074a0;stroke-width:0.27447927;fill-opacity:1"
       id="path2"
       d="M 40.285273,76.189216 26.584861,11.836497 75.465753,55.877758 9.9999997,48.985672 67.049435,16.048169" />
    <g
       id="flowRoot871"
       style="font-style:normal;font-weight:normal;font-size:40px;line-height:1.25;font-family:sans-serif;letter-spacing:0px;word-spacing:0px;fill:#1d3140;fill-opacity:0.2;stroke:none"
       transform="matrix(0.77829403,0,0.0680919,0.77829403,-45.789424,42.801294)"
       aria-label="&amp;">
      <path
         id="path4624"
         style="font-style:normal;font-variant:normal;font-weight:normal;font-stretch:normal;font-size:96px;font-family:Engagement;-inkscape-font-specification:'Engagement, Normal';font-variant-ligatures:normal;font-variant-caps:normal;font-variant-numeric:normal;font-feature-settings:normal;text-align:start;writing-mode:lr-tb;text-anchor:start;fill:#1d3140;fill-opacity:0.2"
         d="m 250.91602,23.479881 q 0.65625,0.609375 0.65625,1.03125 0,0.5625 -0.70313,0.5625 -0.28125,0 -0.60937,-0.140625 -0.32813,-0.09375 -1.59375,-0.796875 -1.26563,-0.703125 -3.1875,-1.96875 -1.92188,-1.265625 -4.35938,-3.140625 -2.39062,-1.875 -4.96875,-4.359375 -2.95312,2.34375 -6.42187,3.796875 -3.46875,1.453125 -7.17188,1.453125 -3.32812,0 -6.14062,-1.3125 -2.8125,-1.3125 -4.875,-3.515625 -2.0625,-2.203125 -3.23438,-5.1093747 -1.17187,-2.90625 -1.17187,-6.140625 0,-3.14062496 0.89062,-5.625 0.89063,-2.53125 2.39063,-4.59375 1.54687,-2.0625 3.5625,-3.7500003 2.0625,-1.6875 4.3125,-3.234375 -1.03125,-3.375 -1.5,-6.65625 -0.42188,-3.28125 -0.42188,-6.65625 0,-2.953125 0.5625,-5.71875 0.60938,-2.8125 1.96875,-4.96875 1.35938,-2.15625 3.5625,-3.46875 2.25,-1.3125 5.57813,-1.3125 2.53125,0 4.5,0.796875 2.01562,0.75 3.375,2.15625 1.35937,1.40625 2.0625,3.375 0.75,1.921875 0.75,4.21875 0,3.1875 -1.125,5.625 -1.07813,2.390625 -2.90625,4.453125 -1.78125,2.015625 -4.125,3.84375 -2.34375,1.828125 -4.78125,3.796875 1.96875,5.1093753 4.78125,10.2656253 2.85937,5.109375 6.09375,9.9375 0.75,-1.546875 1.17187,-3.375 0.42188,-1.875 0.42188,-4.078125 0,-2.0625 -0.42188,-3.5625 -0.375,-1.546875 -0.84375,-2.578125 -0.42187,-1.078125 -0.84375,-1.734375 -0.375,-0.65625 -0.375,-0.984375 0,-0.5625003 0.42188,-0.7031253 0.46875,-0.1875 1.07812,-0.1875 0.32813,0 1.07813,0.140625 0.75,0.09375 1.6875,0.421875 0.9375,0.3281253 1.96875,0.9843753 1.03125,0.609375 1.82812,1.640625 0.84375,1.03125 1.35938,2.578125 0.5625,1.546875 0.5625,3.65625 0,2.8125 -1.59375,6.140625 -1.54688,3.328125 -4.21875,6.3749997 2.8125,3.796875 5.625,6.984375 2.8125,3.140625 5.34375,5.4375 z m -27.89063,-8.25 q 2.20313,0 4.82813,-0.9375 2.67187,-0.9375 5.01562,-3 -1.3125,-1.4531247 -2.625,-3.0468747 -1.26562,-1.59375 -2.48437,-3.375 -2.57813,-3.65625 -4.5,-6.984375 -1.875,-3.328125 -3.23438,-6.515625 -0.28125,0.328125 -0.5625,0.609375 -0.28125,0.28125 -0.51562,0.609375 -2.25,2.671875 -3.23438,5.578125 -0.98437,2.859375 -0.98437,5.671875 0,2.34375 0.5625,4.453125 0.5625,2.0624997 1.59375,3.6093747 1.07812,1.546875 2.625,2.4375 1.54687,0.890625 3.51562,0.890625 z m -0.70312,-44.296875 q 0,2.578125 0.51562,5.4375 0.5625,2.8125 1.54688,5.859375 1.5,-1.359375 2.85937,-3 1.35938,-1.640625 2.39063,-3.375 1.03125,-1.78125 1.64062,-3.609375 0.60938,-1.828125 0.60938,-3.515625 0,-1.640625 -0.51563,-2.90625 -0.46875,-1.265625 -1.21875,-2.15625 -0.70312,-0.890625 -1.54687,-1.3125 -0.84375,-0.46875 -1.54688,-0.46875 -0.65625,0 -1.45312,0.515625 -0.79688,0.46875 -1.54688,1.546875 -0.75,1.078125 -1.26562,2.8125 -0.46875,1.6875 -0.46875,4.171875 z"
         inkscape:connector-curvature="0" />
    </g>
    <g
       id="flowRoot859"
       style="font-style:normal;font-weight:normal;font-size:40px;line-height:1.25;font-family:sans-serif;letter-spacing:0px;word-spacing:0px;fill:#1d3141;fill-opacity:1;stroke:none"
       transform="matrix(0.39797032,0,0,0.39797032,4.730588,0.131475)"
       aria-label="Shelby Brad ">
      <path
         id="path4627"
         style="font-style:normal;font-variant:normal;font-weight:normal;font-stretch:normal;font-size:74.66666412px;font-family:Engagement;-inkscape-font-specification:'Engagement, Normal';font-variant-ligatures:normal;font-variant-caps:normal;font-variant-numeric:normal;font-feature-settings:normal;text-align:start;writing-mode:lr-tb;text-anchor:start;fill:#1d3141;fill-opacity:1"
         d="m 194.38151,58.148984 q 0.25521,0.729166 0.25521,1.057291 0,0.401042 -0.21875,0.583334 -0.18229,0.182291 -0.40104,0.656249 -0.1823,0.401042 -0.47396,0.583334 -0.25521,0.145833 -0.54688,0.291666 -0.25521,0.145834 -0.51041,0.328125 -0.25521,0.145834 -0.40105,0.510417 -0.2552,0.619792 -0.76562,0.911458 -0.47396,0.291667 -1.05729,0.291667 -0.58334,0 -1.16667,-0.291667 -0.54687,-0.328125 -1.23958,-0.802083 -0.65625,-0.473958 -1.53125,-1.020833 -0.83854,-0.583334 -2.07813,-1.057292 -1.23958,-0.473958 -2.91666,-0.765625 -1.67709,-0.328125 -3.9375,-0.328125 -3.28125,0 -5.90625,0.947917 -2.58855,0.911458 -4.77604,3.244791 -1.45834,1.567709 -2.15105,3.244792 -0.6927,1.640625 -0.6927,3.171875 0,1.385416 0.61979,2.479166 0.65625,1.09375 1.75,2.005209 1.09375,0.875 2.55208,1.640625 1.49479,0.729166 3.17187,1.458333 1.71355,0.692708 3.53646,1.385417 1.85938,0.692708 3.68229,1.494791 2.69792,1.203125 4.84896,2.661458 2.15104,1.421875 3.64584,3.171875 1.49479,1.75 2.29687,3.791667 0.80208,2.041666 0.80208,4.411458 0,3.026042 -1.05729,5.723958 -1.05729,2.661458 -3.24479,4.666668 -2.1875,2.00521 -5.50521,3.17187 -3.28125,1.20313 -7.76562,1.20313 -3.13542,0 -5.50521,-0.76563 -2.36979,-0.76562 -4.01042,-1.82291 -1.60416,-1.02084 -2.55208,-2.07813 -0.91146,-1.02083 -1.16667,-1.60416 -0.18229,-0.40105 -0.2552,-0.65625 -0.0365,-0.29167 -0.0365,-0.47396 0,-0.40104 0.14583,-0.58334 0.18229,-0.18229 0.58333,-0.80208 0.14584,-0.255208 0.40105,-0.364583 0.2552,-0.145833 0.51041,-0.255208 0.29167,-0.145834 0.54688,-0.328125 0.25521,-0.182292 0.4375,-0.546875 0.58333,-1.203125 1.71354,-1.203125 0.61979,0 1.20312,0.4375 0.6198,0.401042 1.34896,1.020833 0.72917,0.619792 1.64063,1.385413 0.94791,0.72917 2.22395,1.34896 1.27605,0.61979 2.91667,1.05729 1.67708,0.40105 3.90104,0.40105 2.77084,0 4.66667,-0.54688 1.89583,-0.54687 3.02604,-1.49479 1.16667,-0.98438 1.67708,-2.296876 0.51042,-1.3125 0.51042,-2.84375 0,-1.895833 -0.72917,-3.28125 -0.6927,-1.385417 -1.96875,-2.442708 -1.23958,-1.057292 -2.98958,-1.859375 -1.75,-0.838542 -3.86458,-1.640625 -2.07813,-0.802083 -4.44792,-1.640625 -2.33333,-0.875 -4.77604,-2.005208 -1.93229,-0.875 -3.53646,-1.932292 -1.60416,-1.09375 -2.77083,-2.442708 -1.13021,-1.348958 -1.75,-3.026042 -0.61979,-1.713541 -0.61979,-3.864583 0,-2.588541 0.76562,-5.067708 0.80209,-2.515625 2.22396,-4.703125 1.42188,-2.223958 3.39063,-4.083333 2.0052,-1.859375 4.37499,-3.208333 2.3698,-1.385417 5.06771,-2.114584 2.69792,-0.765625 5.57813,-0.765625 3.17187,0 5.57812,0.802084 2.40625,0.765625 4.04688,1.822916 1.64062,1.020834 2.55208,2.078125 0.91146,1.020834 1.13021,1.567709 z"
         inkscape:connector-curvature="0" />
      <path
         id="path4629"
         style="font-style:normal;font-variant:normal;font-weight:normal;font-stretch:normal;font-size:74.66666412px;font-family:Engagement;-inkscape-font-specification:'Engagement, Normal';font-variant-ligatures:normal;font-variant-caps:normal;font-variant-numeric:normal;font-feature-settings:normal;text-align:start;writing-mode:lr-tb;text-anchor:start;fill:#1d3141;fill-opacity:1"
         d="m 217.93359,90.159399 q 0.58333,0 0.58333,0.619792 0,0.255208 -0.10937,0.510416 -1.16667,3.244792 -2.11458,5.723959 -0.94792,2.442708 -1.85938,4.119794 -0.91146,1.64062 -1.93229,2.47916 -0.98438,0.83855 -2.22396,0.83855 -1.60417,0 -2.51562,-0.80209 -0.91146,-0.83854 -1.34896,-2.04166 -0.4375,-1.20313 -0.54688,-2.552088 -0.10937,-1.385416 -0.10937,-2.479166 0,-1.96875 0.10937,-3.71875 0.14584,-1.786459 0.14584,-2.697917 0,-1.385416 -0.76563,-1.385416 -0.58333,0 -0.875,0.802083 -0.18229,0.4375 -0.54687,1.604166 -0.36459,1.166667 -0.875,2.661459 -0.47396,1.458333 -0.98438,3.0625 -0.51042,1.567708 -0.94792,2.807291 -0.58333,1.604168 -1.09375,2.624998 -0.47395,0.98438 -0.91145,1.53125 -0.4375,0.54688 -0.875,0.72917 -0.4375,0.18229 -0.91146,0.18229 -0.40104,0 -0.83854,-0.14583 -0.40105,-0.14584 -0.72917,-0.51042 -0.32813,-0.36458 -0.54688,-0.94792 -0.21875,-0.61979 -0.21875,-1.5677 0,-0.98438 0.14584,-2.989588 0.10937,-2.041666 0.32812,-4.703125 0.18229,-2.661458 0.4375,-5.723958 0.29167,-3.0625 0.58334,-6.161458 0.29166,-3.098958 0.54687,-5.979166 0.29167,-2.916667 0.51042,-5.213542 0.40104,-4.010416 0.80208,-7.109375 0.4375,-3.098958 1.13021,-4.848958 0.21875,-0.546875 0.47396,-0.875 0.25521,-0.328125 0.54687,-0.619791 0.32813,-0.291667 0.69271,-0.583334 0.40104,-0.328125 0.91146,-0.838541 0.94792,-0.911459 1.42187,-1.276042 0.51042,-0.364583 0.875,-0.364583 0.32813,0 0.69271,0.255208 0.40104,0.21875 0.40104,0.875 0,0.145833 -0.10937,0.583333 -0.10938,0.4375 -0.40104,1.786459 -0.29167,1.348958 -0.65625,3.281249 -0.36459,1.932292 -0.76563,4.338542 -0.36458,2.369792 -0.65625,4.921875 -0.36458,2.84375 -0.69271,5.723958 -0.29166,2.880208 -0.54687,5.578125 -0.25521,2.661458 -0.47396,5.03125 -0.21875,2.333333 -0.36458,4.156249 -0.14584,1.786459 -0.21875,2.953125 -0.0729,1.130209 -0.0729,1.348959 0,0.583333 0.0729,0.583333 0.0365,0 0.29166,-0.692708 0.29167,-0.729167 0.69271,-1.859375 0.40104,-1.130209 0.91146,-2.515625 0.51042,-1.421875 1.09375,-2.84375 0.58333,-1.421875 1.20313,-2.661458 0.61979,-1.239584 1.23958,-2.078125 0.72917,-0.984375 1.53125,-1.458334 0.80208,-0.473958 1.56771,-0.473958 1.42187,0 2.07812,1.276042 0.69271,1.239583 0.69271,3.171875 0,0.838541 -0.14583,2.151041 -0.10938,1.3125 -0.25521,2.770833 -0.10938,1.421875 -0.25521,2.807292 -0.10937,1.348958 -0.10937,2.296875 0,1.020833 0.10937,1.677083 0.10938,0.65625 0.29167,1.057292 0.21875,0.401042 0.4375,0.583333 0.25521,0.145834 0.54687,0.145834 0.58334,0 1.09375,-0.619792 0.54688,-0.65625 1.09375,-1.75 0.54688,-1.09375 1.13021,-2.552083 0.58333,-1.494792 1.27604,-3.171875 0.18229,-0.473959 0.40104,-0.65625 0.25521,-0.182292 0.51042,-0.182292 z"
         inkscape:connector-curvature="0" />
      <path
         id="path4631"
         style="font-style:normal;font-variant:normal;font-weight:normal;font-stretch:normal;font-size:74.66666412px;font-family:Engagement;-inkscape-font-specification:'Engagement, Normal';font-variant-ligatures:normal;font-variant-caps:normal;font-variant-numeric:normal;font-feature-settings:normal;text-align:start;writing-mode:lr-tb;text-anchor:start;fill:#1d3141;fill-opacity:1"
         d="m 235.14192,90.159399 q 0.21875,0 0.36459,0.145833 0.18229,0.145834 0.18229,0.4375 0,0.291667 -0.10938,0.546875 -0.54687,1.53125 -1.20312,2.880209 -0.61979,1.348958 -1.16667,2.40625 -0.65625,1.203125 -1.27604,2.260416 -0.76562,1.203128 -1.71354,2.296878 -0.91146,1.05729 -2.00521,1.89583 -1.09375,0.80208 -2.36979,1.27604 -1.27604,0.47396 -2.69792,0.47396 -1.05729,0 -2.33333,-0.36458 -1.23958,-0.36459 -2.33333,-1.34896 -1.0573,-0.98438 -1.75,-2.69792 -0.72917,-1.713539 -0.72917,-4.411456 0,-1.239583 0.25521,-2.515625 0.21875,-1.276042 0.65625,-2.442708 0.40104,-1.166667 0.91146,-2.1875 0.54687,-1.020833 1.09375,-1.786458 0.94791,-1.3125 2.0052,-2.442709 1.0573,-1.166666 2.11459,-2.005208 1.09375,-0.875 2.11458,-1.348958 1.02083,-0.473959 1.89583,-0.473959 1.38542,0 2.40625,1.057292 1.0573,1.057292 1.0573,3.026042 0,1.713541 -0.875,3.572916 -0.875,1.822917 -2.1875,3.572917 -1.3125,1.75 -2.8073,3.244791 -1.49479,1.494792 -2.73437,2.479167 0.65625,1.640625 1.67708,2.406246 1.02084,0.76563 2.07813,0.76563 1.64062,0 2.91666,-1.057293 1.3125,-1.057291 2.33334,-2.588541 1.05729,-1.53125 1.82291,-3.208334 0.80209,-1.677083 1.42188,-2.953125 0.21875,-0.4375 0.4375,-0.65625 0.21875,-0.255208 0.54687,-0.255208 z m -14.18229,1.75 q 0,2.151042 0.32813,3.791667 0.72916,-0.729167 1.45833,-1.640625 0.76563,-0.947917 1.34896,-1.932292 0.61979,-0.984375 0.98437,-2.005208 0.40105,-1.020833 0.40105,-1.96875 0,-1.458333 -0.6198,-2.260417 -0.61979,-0.802083 -1.23958,-0.802083 -0.36458,0 -0.83854,0.473958 -0.4375,0.4375 -0.875,1.3125 -0.40104,0.875 -0.69271,2.151042 -0.25521,1.239583 -0.25521,2.880208 z"
         inkscape:connector-curvature="0" />
      <path
         id="path4633"
         style="font-style:normal;font-variant:normal;font-weight:normal;font-stretch:normal;font-size:74.66666412px;font-family:Engagement;-inkscape-font-specification:'Engagement, Normal';font-variant-ligatures:normal;font-variant-caps:normal;font-variant-numeric:normal;font-feature-settings:normal;text-align:start;writing-mode:lr-tb;text-anchor:start;fill:#1d3141;fill-opacity:1"
         d="m 247.9388,90.159399 q 0.21875,0 0.36458,0.182292 0.1823,0.145833 0.1823,0.4375 0,0.255208 -0.10938,0.510416 -0.72917,2.114584 -1.42187,3.901042 -0.65625,1.75 -1.3125,3.244792 -0.61979,1.421874 -1.20313,2.442709 -0.54687,1.02083 -1.09375,1.71354 -0.51041,0.69271 -1.05729,1.13021 -0.51042,0.40104 -1.05729,0.58333 -0.54688,0.18229 -1.27604,0.18229 -0.80209,0 -1.75,-0.36458 -0.94792,-0.32812 -1.78646,-1.3125 -0.80208,-0.98437 -1.34896,-2.73437 -0.54687,-1.786463 -0.54687,-4.630213 0,-0.765625 0.0729,-2.588541 0.10938,-1.822917 0.25521,-4.375 0.18229,-2.588542 0.40104,-5.833333 0.25521,-3.244792 0.54688,-6.854167 0.18229,-2.223958 0.4375,-4.848958 0.29166,-2.661458 0.58333,-5.177083 0.29167,-2.515625 0.58333,-4.630208 0.29167,-2.114583 0.51042,-3.317708 0.25521,-1.276042 0.98438,-2.005209 0.72916,-0.729166 1.64062,-1.567708 0.32813,-0.328125 0.69271,-0.692708 0.36458,-0.401042 0.72917,-0.729167 0.36458,-0.328125 0.6927,-0.546875 0.36459,-0.255208 0.69271,-0.255208 0.51042,0 0.51042,0.510416 0,0.401042 -0.18229,1.458334 -0.18229,1.057291 -0.51042,3.390625 -0.32812,2.333333 -0.80208,6.307291 -0.4375,3.9375 -0.94792,10.135416 -0.10937,1.239584 -0.25521,2.953125 -0.14583,1.713542 -0.29166,3.645833 -0.14584,1.895834 -0.29167,3.901042 -0.10938,1.96875 -0.21875,3.755208 -0.10938,1.75 -0.18229,3.208333 -0.0729,1.458334 -0.0729,2.333334 0,2.515625 0.51042,3.973958 0.54687,1.421875 1.78646,1.421875 0.6927,0 1.23958,-0.619792 0.54687,-0.619791 1.05729,-1.677083 0.51042,-1.09375 1.05729,-2.515625 0.54688,-1.458333 1.20313,-3.135417 0.18229,-0.4375 0.4375,-0.65625 0.2552,-0.255208 0.54687,-0.255208 z"
         inkscape:connector-curvature="0" />
      <path
         id="path4635"
         style="font-style:normal;font-variant:normal;font-weight:normal;font-stretch:normal;font-size:74.66666412px;font-family:Engagement;-inkscape-font-specification:'Engagement, Normal';font-variant-ligatures:normal;font-variant-caps:normal;font-variant-numeric:normal;font-feature-settings:normal;text-align:start;writing-mode:lr-tb;text-anchor:start;fill:#1d3141;fill-opacity:1"
         d="m 268.79296,90.159399 q 0.21875,0 0.36459,0.145833 0.18229,0.145834 0.18229,0.473959 0,0.291666 -0.14584,0.619791 -0.83854,2.223959 -2.51562,3.317709 -1.64063,1.057291 -3.60938,1.057291 h -0.0729 q -0.61979,1.786459 -1.49479,3.390625 -0.83855,1.567713 -2.00521,2.770833 -1.13021,1.20313 -2.58854,1.89583 -1.42188,0.69271 -3.13542,0.69271 -1.53125,0 -2.625,-0.61979 -1.09375,-0.61979 -1.82292,-1.67708 -0.6927,-1.05729 -1.1302,-2.406253 -0.40105,-1.348958 -0.6198,-2.807291 -0.18229,-1.458334 -0.2552,-2.916667 -0.0365,-1.458333 -0.0365,-2.734375 0,-1.130208 0.0729,-3.28125 0.10938,-2.1875 0.25521,-4.848958 0.18229,-2.697917 0.4375,-5.6875 0.29167,-2.989583 0.65625,-5.833333 0.36459,-2.84375 0.65625,-4.8125 0.29167,-1.96875 0.54688,-3.354166 0.29166,-1.421875 0.58333,-2.369792 0.29167,-0.984375 0.65625,-1.859375 0.21875,-0.546875 0.47396,-0.875 0.29167,-0.328125 0.65625,-0.619791 0.36458,-0.291667 0.76562,-0.583334 0.4375,-0.328125 0.94792,-0.838541 0.91146,-0.911459 1.53125,-1.239584 0.61979,-0.328125 0.98438,-0.328125 0.6927,0 0.6927,1.09375 0,0.291667 -0.0365,0.583334 -0.0365,0.291666 -0.10937,0.546875 -0.25521,1.057291 -0.69271,3.098958 -0.40104,2.005208 -0.91146,4.703125 -0.47395,2.697916 -0.98437,5.979166 -0.51042,3.28125 -0.94792,6.927083 -0.40104,3.609375 -0.65625,7.473958 -0.25521,3.828125 -0.25521,7.65625 0,2.296875 0.1823,3.901042 0.21875,1.604166 0.54687,2.624999 0.36458,0.984375 0.83854,1.458335 0.51042,0.4375 1.13021,0.4375 0.83854,0 1.45833,-0.54688 0.61979,-0.58333 1.05729,-1.531246 0.4375,-0.947917 0.72917,-2.1875 0.29167,-1.239583 0.4375,-2.625 -1.05729,-0.729167 -1.96875,-1.75 -0.875,-1.020833 -1.53125,-2.1875 -0.61979,-1.166666 -0.98437,-2.40625 -0.32813,-1.239583 -0.32813,-2.40625 0,-1.130208 0.32813,-2.151041 0.32812,-1.057292 0.94791,-1.859375 0.65625,-0.802084 1.60417,-1.239584 0.94792,-0.473958 2.22396,-0.473958 1.05729,0 1.96875,0.473958 0.94791,0.4375 1.64062,1.348959 0.72917,0.911458 1.13021,2.296875 0.40104,1.348958 0.40104,3.171875 0,1.604166 -0.21875,3.354166 -0.21875,1.713542 -0.69271,3.463542 1.38542,-0.07292 2.51563,-0.875 1.13021,-0.838542 1.71354,-2.114584 0.36458,-0.911458 1.05729,-0.911458 z m -10.39062,0.911458 q 0.18229,0.291667 0.36458,0.546875 0.18229,0.255209 0.36458,0.510417 0.0365,-0.328125 0.0365,-0.65625 0,-0.328125 0,-0.65625 0,-1.859375 -0.18229,-3.098958 -0.18229,-1.239583 -0.47396,-2.005208 -0.29166,-0.802084 -0.69271,-1.166667 -0.40104,-0.401042 -0.83854,-0.510417 -0.51041,0.65625 -0.51041,1.713542 0,1.276042 0.58333,2.734375 0.61979,1.421875 1.34896,2.588541 z"
         inkscape:connector-curvature="0" />
      <path
         id="path4637"
         style="font-style:normal;font-variant:normal;font-weight:normal;font-stretch:normal;font-size:74.66666412px;font-family:Engagement;-inkscape-font-specification:'Engagement, Normal';font-variant-ligatures:normal;font-variant-caps:normal;font-variant-numeric:normal;font-feature-settings:normal;text-align:start;writing-mode:lr-tb;text-anchor:start;fill:#1d3141;fill-opacity:1"
         d="m 293.2565,91.070857 q -0.72916,2.151042 -1.56771,4.119792 -0.80208,1.932292 -1.85937,3.71875 -1.02083,1.750001 -2.36979,3.390621 -1.34896,1.60417 -3.13542,3.13542 -0.10937,1.75 -0.29167,3.53646 -0.18229,1.78646 -0.40104,3.5 -0.58333,4.44791 -1.49479,7.21875 -0.91146,2.80729 -1.93229,4.48437 -1.02083,1.67709 -2.07813,2.47917 -1.02083,0.80208 -1.82291,1.20312 -1.82292,0.91146 -3.0625,0.91146 -1.67709,0 -2.58854,-1.67708 -0.91146,-1.67708 -0.91146,-4.33854 0,-2.51563 0.83854,-4.73959 0.83854,-2.22395 2.15104,-4.1927 1.34896,-1.96875 2.98958,-3.68229 1.67709,-1.67709 3.35417,-3.09896 0.10938,-1.38542 0.14583,-2.58854 0.0729,-1.20313 0.14584,-2.04167 0.10937,-2.15104 0.14583,-4.520834 0.0365,-2.40625 0.10938,-4.447917 -0.83855,3.208333 -1.67709,5.322917 -0.83854,2.114584 -1.71354,3.354164 -0.83854,1.23959 -1.75,1.75 -0.91146,0.51042 -1.93229,0.51042 -0.72917,0 -1.49479,-0.40104 -0.76563,-0.4375 -1.42188,-1.56771 -0.61979,-1.16667 -1.02083,-3.208334 -0.40104,-2.078125 -0.40104,-5.322917 0,-1.3125 0.0729,-2.661458 0.10938,-1.385417 0.29167,-2.661458 0.18229,-1.3125 0.40104,-2.442709 0.21875,-1.166666 0.51042,-2.041666 0.14583,-0.4375 0.36458,-0.65625 0.21875,-0.255209 0.36459,-0.4375 0.18229,-0.21875 0.29166,-0.364584 0.14584,-0.182291 0.32813,-0.182291 0.29166,0 0.40104,0.21875 0.10937,0.182291 0.40104,0.182291 0.10938,0 0.40104,-0.145833 0.29167,-0.182292 0.61979,-0.401042 0.32813,-0.21875 0.65625,-0.364583 0.32813,-0.182292 0.54688,-0.182292 0.40104,0 0.40104,0.65625 0,0.255209 -0.0729,0.583334 -0.0365,0.328125 -0.10937,0.765625 -0.36458,1.677083 -0.47396,3.536458 -0.0729,1.822917 -0.0729,4.229166 0,1.640625 0,3.026042 0.0365,1.348958 0.1823,2.333333 0.14583,0.984375 0.4375,1.53125 0.32812,0.546875 0.875,0.546875 0.65625,0 1.20312,-0.947916 0.58333,-0.947917 1.09375,-2.40625 0.51042,-1.494792 0.98438,-3.317709 0.47395,-1.822916 0.94791,-3.572916 0.47396,-1.786458 0.91146,-3.28125 0.47396,-1.53125 0.98438,-2.40625 0.40104,-0.65625 1.23958,-1.130208 0.875,-0.473959 1.53125,-0.473959 0.36458,0 0.61979,0.109375 0.25521,0.07292 0.4375,0.364584 0.18229,0.255208 0.25521,0.802083 0.10937,0.510417 0.10937,1.385417 0,1.494791 -0.0729,3.28125 -0.0365,1.75 -0.10938,3.427083 -0.0729,1.640625 -0.14583,2.953125 -0.0729,1.3125 -0.10938,1.895833 -0.0729,0.838542 -0.18229,2.770833 -0.0729,1.895838 -0.21875,4.374998 1.34896,-1.13021 2.36979,-2.36979 1.0573,-1.276041 1.89584,-2.697916 0.83854,-1.458333 1.56771,-3.098958 0.72916,-1.640625 1.42187,-3.536459 0.40104,-0.984375 1.09375,-0.984375 0.51042,0 0.51042,0.510417 0,0.109375 -0.0365,0.255208 -0.0365,0.145834 -0.0729,0.21875 z m -14.94791,22.385413 q 0.10937,-0.65625 0.21875,-1.34895 0.10937,-0.69271 0.18229,-1.42188 -1.02084,1.20313 -1.89584,2.55208 -0.83854,1.34896 -1.45833,2.91667 -0.58333,1.60417 -0.94792,3.42708 -0.32812,1.85938 -0.32812,4.04688 0,1.23958 0.18229,1.75 0.21875,0.51041 0.4375,0.51041 0.36458,0 0.76563,-0.6927 0.40104,-0.69271 0.72916,-1.78646 0.36459,-1.09375 0.69271,-2.47917 0.32813,-1.34896 0.58333,-2.73437 0.29167,-1.38542 0.51042,-2.66146 0.21875,-1.23959 0.32813,-2.07813 z"
         inkscape:connector-curvature="0" />
      <path
         id="path4639"
         style="font-style:normal;font-variant:normal;font-weight:normal;font-stretch:normal;font-size:69.33333588px;font-family:Lato;-inkscape-font-specification:'Lato, Normal';font-variant-ligatures:normal;font-variant-caps:normal;font-variant-numeric:normal;font-feature-settings:normal;text-align:start;writing-mode:lr-tb;text-anchor:start;fill:#1d3141;fill-opacity:1"
         d="M 322.16822,103.97711 V 54.299772 h 15.84267 q 4.576,0 7.86933,0.901333 3.328,0.901334 5.44267,2.565334 2.14933,1.664 3.15466,4.090666 1.00534,2.392001 1.00534,5.408001 0,1.837333 -0.58934,3.536 -0.55466,1.698667 -1.69866,3.154667 -1.144,1.456 -2.912,2.6 -1.73334,1.144 -4.09067,1.872 5.44267,1.074666 8.216,3.917333 2.77333,2.842667 2.77333,7.488 0,3.154667 -1.17866,5.754667 -1.144,2.6 -3.39734,4.471997 -2.21866,1.872 -5.47733,2.912 -3.25867,1.00534 -7.41867,1.00534 z m 6.69067,-22.637337 V 98.63844 h 10.74666 q 2.87734,0 4.95734,-0.658667 2.08,-0.658666 3.39733,-1.837333 1.352,-1.213333 1.976,-2.842667 0.624,-1.664 0.624,-3.64 0,-3.848 -2.73867,-6.066667 -2.73866,-2.253333 -8.216,-2.253333 z m 0,-4.784 h 8.87466 q 2.84267,0 4.92267,-0.624 2.11467,-0.624 3.46667,-1.733334 1.38666,-1.109333 2.04533,-2.669333 0.65867,-1.594667 0.65867,-3.466667 0,-4.402667 -2.63467,-6.413334 -2.63467,-2.045333 -8.18133,-2.045333 h -9.152 z"
         inkscape:connector-curvature="0" />
      <path
         id="path4641"
         style="font-style:normal;font-variant:normal;font-weight:normal;font-stretch:normal;font-size:69.33333588px;font-family:Lato;-inkscape-font-specification:'Lato, Normal';font-variant-ligatures:normal;font-variant-caps:normal;font-variant-numeric:normal;font-feature-settings:normal;text-align:start;writing-mode:lr-tb;text-anchor:start;fill:#1d3141;fill-opacity:1"
         d="M 364.72263,103.97711 V 68.859772 h 3.536 q 1.00533,0 1.38666,0.381334 0.38134,0.381333 0.52,1.317333 l 0.38134,5.338667 q 1.664,-3.605333 4.09066,-5.616 2.46134,-2.045334 5.96267,-2.045334 1.10933,0 2.11467,0.242667 1.04,0.242667 1.83733,0.762667 l -0.45067,4.610667 q -0.208,0.866666 -1.04,0.866666 -0.48533,0 -1.42133,-0.208 -0.936,-0.208 -2.11467,-0.208 -1.664,0 -2.98133,0.52 -1.31733,0.485334 -2.35733,1.456 -1.00534,0.936 -1.80267,2.322667 -0.79733,1.386667 -1.456,3.189334 v 22.18667 z"
         inkscape:connector-curvature="0" />
      <path
         id="path4643"
         style="font-style:normal;font-variant:normal;font-weight:normal;font-stretch:normal;font-size:69.33333588px;font-family:Lato;-inkscape-font-specification:'Lato, Normal';font-variant-ligatures:normal;font-variant-caps:normal;font-variant-numeric:normal;font-feature-settings:normal;text-align:start;writing-mode:lr-tb;text-anchor:start;fill:#1d3141;fill-opacity:1"
         d="m 411.6938,103.97711 q -0.90133,0 -1.38666,-0.27734 -0.48534,-0.312 -0.76267,-1.17866 l -0.69333,-3.293336 q -1.38667,1.247996 -2.73867,2.253336 -1.31733,0.97066 -2.77333,1.664 -1.42134,0.65866 -3.08534,1.00533 -1.62933,0.38133 -3.64,0.38133 -2.04533,0 -3.848,-0.55466 -1.80266,-0.58934 -3.15466,-1.73334 -1.31734,-1.144 -2.11467,-2.87733 -0.76267,-1.768 -0.76267,-4.16 0,-2.08 1.144,-3.986667 1.144,-1.941333 3.70934,-3.432 2.56533,-1.490667 6.69066,-2.426667 4.12534,-0.970666 10.12267,-1.109333 v -2.738667 q 0,-4.090667 -1.768,-6.170667 -1.768,-2.114666 -5.16533,-2.114666 -2.288,0 -3.848,0.589333 -1.52534,0.554667 -2.66934,1.282667 -1.10933,0.693333 -1.94133,1.282666 -0.79733,0.554667 -1.59467,0.554667 -0.624,0 -1.07466,-0.312 -0.45067,-0.346667 -0.76267,-0.832 l -1.10933,-1.976 q 2.912,-2.808 6.27466,-4.194667 3.36267,-1.386667 7.45334,-1.386667 2.94666,0 5.23466,0.970667 2.288,0.970667 3.848,2.704 1.56,1.733334 2.35734,4.194667 0.79733,2.461333 0.79733,5.408 v 22.464004 z m -13.24266,-3.77867 q 1.62933,0 2.98133,-0.312 1.352,-0.346666 2.53067,-0.936 1.21333,-0.624 2.288,-1.490667 1.10933,-0.901333 2.14933,-2.010666 v -7.280001 q -4.264,0.138667 -7.28,0.693334 -2.98133,0.52 -4.888,1.386667 -1.872,0.866666 -2.73867,2.045333 -0.832,1.178667 -0.832,2.634667 0,1.386666 0.45067,2.392 0.45067,1.005333 1.21333,1.664 0.79734,0.624 1.83734,0.936 1.07466,0.277333 2.288,0.277333 z"
         inkscape:connector-curvature="0" />
      <path
         id="path4645"
         style="font-style:normal;font-variant:normal;font-weight:normal;font-stretch:normal;font-size:69.33333588px;font-family:Lato;-inkscape-font-specification:'Lato, Normal';font-variant-ligatures:normal;font-variant-caps:normal;font-variant-numeric:normal;font-feature-settings:normal;text-align:start;writing-mode:lr-tb;text-anchor:start;fill:#1d3141;fill-opacity:1"
         d="m 449.14031,103.97711 q -1.31733,0 -1.664,-1.28267 l -0.55466,-4.264 q -2.25334,2.73867 -5.16534,4.40267 -2.87733,1.62933 -6.62133,1.62933 -3.016,0 -5.47733,-1.144 -2.46134,-1.17867 -4.19467,-3.432 -1.73333,-2.253333 -2.66933,-5.616 -0.936,-3.362667 -0.936,-7.730667 0,-3.882667 1.04,-7.210667 1.04,-3.362667 2.98133,-5.824 1.94133,-2.461334 4.74933,-3.848 2.84267,-1.421334 6.37867,-1.421334 3.224,0 5.512,1.109334 2.32267,1.074666 4.12533,3.050667 V 52.913105 h 6.17067 v 51.064005 z m -11.99466,-4.50667 q 3.05066,0 5.304,-1.386667 2.288,-1.386666 4.19466,-3.917333 V 77.214439 q -1.73333,-2.288 -3.744,-3.224 -2.01066,-0.936 -4.50666,-0.936 -4.888,0 -7.52267,3.501334 -2.63467,3.501333 -2.63467,9.984 0,3.432 0.58934,5.893334 0.58933,2.426666 1.73333,4.021333 1.144,1.56 2.808,2.288 1.664,0.728 3.77867,0.728 z"
         inkscape:connector-curvature="0" />
    </g>
  </g>
</svg>
